<?xml version="1.0" encoding="UTF-8" standalone="no"?>
<!-- Created with Inkscape (http://www.inkscape.org/) -->

<svg
   width="289.26422mm"
   height="87.978905mm"
   viewBox="0 0 289.26422 87.978905"
   version="1.1"
   id="SVGRoot"
   sodipodi:docname="logo.svg"
   inkscape:version="1.2.2 (732a01da63, 2022-12-09)"
   xmlns:inkscape="http://www.inkscape.org/namespaces/inkscape"
   xmlns:sodipodi="http://sodipodi.sourceforge.net/DTD/sodipodi-0.dtd"
   xmlns="http://www.w3.org/2000/svg"
   xmlns:svg="http://www.w3.org/2000/svg">
  <sodipodi:namedview
     id="namedview10222"
     pagecolor="#ffffff"
     bordercolor="#000000"
     borderopacity="0.25"
     inkscape:showpageshadow="2"
     inkscape:pageopacity="0.0"
     inkscape:pagecheckerboard="0"
     inkscape:deskcolor="#d1d1d1"
     inkscape:document-units="mm"
     showgrid="false"
     inkscape:zoom="0.55244701"
     inkscape:cx="663.41204"
     inkscape:cy="416.32952"
     inkscape:window-width="1920"
     inkscape:window-height="1057"
     inkscape:window-x="-8"
     inkscape:window-y="-8"
     inkscape:window-maximized="1"
     inkscape:current-layer="layer1" />
  <defs
     id="defs10217">
    <rect
       x="133.94949"
       y="439.86118"
       width="991.95032"
       height="409.08902"
       id="rect4742" />
    <rect
       x="133.94949"
       y="439.86118"
       width="991.95032"
       height="409.08902"
       id="rect4800" />
    <rect
       x="133.94949"
       y="439.86118"
       width="991.95032"
       height="409.08902"
       id="rect5670" />
    <rect
       x="133.94949"
       y="439.86118"
       width="991.95032"
       height="409.08902"
       id="rect5676" />
  </defs>
  <g
     inkscape:label="Слой 1"
     inkscape:groupmode="layer"
     id="layer1"
     transform="translate(-78.732294,-101.76908)">
    <g
       id="g10736">
      <g
         aria-label="rówka"
         transform="matrix(0.26458333,0,0,0.26458333,140.69303,-10.826754)"
         id="text4740"
         style="font-weight:bold;font-size:226.667px;font-family:'Microsoft Tai Le';-inkscape-font-specification:'Microsoft Tai Le Bold';white-space:pre;shape-inside:url(#rect4742);display:inline;fill:#84dcc6;stroke:#478978;stroke-width:0;stroke-linecap:round">
        <path
           d="m 162.50395,583.12877 q 0.77474,-9.07553 6.97267,-18.4831 5.97657,-9.07553 14.38804,-14.72007 8.7435,-6.08725 16.60159,-5.64454 8.7435,0.33203 13.94533,8.85418 5.97657,9.07553 1.77084,19.14716 -3.431,8.30079 -12.83857,15.49482 -1.54948,1.21745 -3.32031,2.4349 -2.10287,1.54948 -4.31642,2.98828 -5.75521,3.54167 -10.73569,5.75522 -13.94533,5.86589 -18.92581,-1.21745 -4.42709,-6.08725 -3.54167,-14.6094 z m 80.68371,74.9285 q -1.88151,-1.99219 -4.75912,-3.98438 -1.99219,-1.43881 -5.20183,-3.32032 -4.53777,-2.65625 -11.06772,-7.3047 l -5.42319,-3.76302 -5.42318,-3.87371 -2.87761,-1.77083 -2.87761,-1.88152 q -3.431,-2.21354 -4.98048,-3.8737 -4.53776,-4.75912 0.44271,-10.40366 2.76693,-3.20964 9.40757,-6.19793 l 2.65625,-1.21745 2.65626,-1.10677 q 2.8776,-1.4388 4.8698,-2.87761 17.487,-12.61721 22.3568,-28.66541 2.54558,-8.63282 0.88542,-18.92581 -1.54948,-9.96095 -6.75131,-18.70445 -5.42319,-9.18621 -13.28127,-14.38804 -8.52215,-5.75522 -18.26175,-5.75522 -33.20318,0 -50.02612,26.34118 -14.05601,22.13545 -14.05601,56.99879 v 46.48444 q 0,2.54558 -0.33203,8.41147 l -0.33203,4.53777 -0.11068,4.64845 q -0.11068,11.1784 3.54167,16.93361 3.76303,6.08725 8.19012,6.30861 3.65235,0.22135 7.19402,-3.87371 3.20964,-3.65235 5.09115,-9.29688 1.88152,-5.53387 1.54949,-9.7396 l -0.11068,-1.21745 -0.11068,-1.21745 -0.22135,-2.76693 q -0.22136,-3.32032 -0.33204,-5.97658 -0.22135,-7.30469 0.77475,-11.62111 2.76693,-11.95314 15.16278,-1.99219 6.86199,5.53387 15.71617,13.28127 l 7.74741,6.75132 7.63673,6.86198 2.4349,2.21355 2.54557,2.32422 q 3.09897,2.65626 5.42319,4.31641 6.41928,4.53777 12.39585,4.42709 6.64063,-0.33203 9.96095,-5.3125 3.09896,-4.75912 2.10287,-11.51044 -0.66406,-4.42709 -4.20574,-8.30079 z"
           style="font-family:Simpsonfont;-inkscape-font-specification:'Simpsonfont Bold'"
           id="path11034" />
        <path
           d="m 323.42867,530.55708 q 21.69274,0 40.06517,24.01696 18.4831,24.01696 18.4831,55.33863 0.22135,26.00915 -31.32166,44.60293 -27.77999,16.0482 -56.66676,16.38023 -18.15106,0 -27.55863,-20.58597 -6.52996,-15.16278 -6.52996,-35.63807 0,-31.32166 14.83075,-55.4493 17.81904,-28.44406 48.69799,-28.66541 z m -31.1003,83.00793 q -0.22136,1.10678 -0.44271,1.54949 -0.11068,0.33203 -2.76693,4.31641 -2.65626,3.98438 -2.65626,7.19402 0,5.20183 5.8659,11.1784 l 8.30079,4.09506 q 3.54167,1.66016 11.1784,1.88151 l 9.40757,-0.77474 q 6.97266,-0.55338 20.36461,-15.27346 13.39195,-14.72007 13.6133,-33.5352 0,-14.16669 -8.19011,-26.11983 -9.7396,-13.61331 -24.349,-13.61331 l -3.8737,0.22136 q -12.83856,0 -19.70055,18.04039 -6.08725,16.82294 -6.75131,40.8399 z m 56.44539,-136.79708 1.43881,-1.4388 0.88542,-0.88542 0.99609,-0.99609 q 1.4388,-1.43881 2.4349,-2.32423 2.98829,-2.76693 5.31251,-4.31641 6.97266,-4.42709 11.06772,0.22136 7.63673,8.52214 -0.55338,17.70836 -2.87761,3.20964 -8.07944,6.97266 l -2.21355,1.54948 -1.99219,1.43881 q -2.54557,1.66016 -3.65235,2.54558 l -3.09896,2.32422 -3.32032,2.32422 q -3.65235,2.76693 -6.75131,4.75912 -8.07944,5.09116 -14.38804,7.19402 -6.64064,2.21355 -7.85809,-1.77083 -1.10677,-3.76303 2.98829,-8.74351 4.98047,-5.86589 13.05991,-13.6133 l 6.86199,-6.52996 z"
           style="font-family:Simpsonfont;-inkscape-font-specification:'Simpsonfont Bold'"
           id="path11036" />
        <path
           d="m 531.72325,537.30839 q -14.49872,2.21354 -12.94924,23.02087 0.33203,3.76302 1.10678,8.63282 0.55338,3.09897 1.66015,8.52215 1.99219,10.51434 2.10287,13.94533 0.11068,5.8659 -1.66016,15.49482 -2.10286,11.28908 -5.64454,20.14326 -9.85027,24.23832 -24.68102,16.71226 -3.20964,-1.66015 -8.3008,-9.73959 -0.99609,-1.54949 -2.21354,-3.76303 l -2.32422,-3.8737 q -3.09897,-5.09116 -4.8698,-7.85809 -5.8659,-9.18621 -10.51434,-12.61721 -6.19793,-4.42709 -11.73179,-0.99609 -5.75522,3.54167 -7.19402,14.16669 -0.55339,3.65235 -0.66407,9.07553 v 2.10287 l -0.11067,2.10287 q 0,2.4349 -0.11068,3.76302 -0.33203,8.3008 -5.53386,16.38024 -4.09506,6.08725 -5.75522,5.42318 -1.21745,-0.44271 -4.09506,-7.19402 -4.64844,-10.73569 -4.42709,-24.01696 0.11068,-4.8698 0.88542,-11.95315 l 0.66406,-6.08724 0.66407,-6.30861 0.11067,-0.77474 0.11068,-0.99609 0.22136,-2.10287 q 0.22135,-2.65626 0.33203,-4.8698 0.22135,-6.41928 -0.44271,-10.62502 -2.10287,-12.39585 -12.39585,-8.07944 -9.07554,3.76303 -12.28518,22.79952 -1.10677,6.52996 -1.66016,15.49481 -0.11067,2.76693 -0.22135,6.86199 l -0.11068,1.54948 v 1.43881 q -0.11068,1.54948 -0.11068,2.54557 -1.66015,30.21489 12.72789,50.24748 7.74741,10.73569 19.47919,10.40366 11.17841,-0.33203 20.25394,-10.18231 2.54558,-2.87761 4.53777,-7.96876 l 0.77474,-1.99219 0.77474,-1.99219 q 0.77474,-2.21355 1.32813,-3.431 1.77083,-3.54167 4.20573,-4.31641 3.09897,-0.77474 8.63283,1.99219 l 4.64844,2.4349 4.75912,2.54558 q 5.75522,2.98828 9.96096,4.53776 11.62111,4.42709 21.25003,2.10287 14.05601,-3.54167 28.44405,-24.34899 13.6133,-19.58988 20.47529,-44.16023 7.19402,-26.00915 2.65626,-43.16412 -5.31251,-19.70055 -25.01306,-21.13936 -4.31641,-0.33203 -7.74741,0.11068 z"
           style="font-family:Simpsonfont;-inkscape-font-specification:'Simpsonfont Bold'"
           id="path11038" />
        <path
           d="m 706.704,647.87496 q -2.65625,-3.76302 -7.52605,-8.07944 -1.66016,-1.54948 -4.31642,-3.65235 l -2.10286,-1.77083 -2.10287,-1.66016 q -10.40366,-8.63283 -13.50263,-13.6133 -4.64844,-7.41538 -3.43099,-18.4831 1.32813,-11.84247 11.62111,-22.35681 1.77084,-1.88151 4.53777,-4.42709 l 4.64844,-4.42709 q 5.8659,-5.53386 9.18621,-9.7396 5.31251,-6.86199 5.97658,-15.82684 0.66406,-10.29299 -6.41929,-14.49872 -8.30079,-4.98048 -18.9258,3.09896 -3.98439,2.98829 -8.07944,7.74741 -3.20964,3.65235 -5.97658,7.74741 -0.77474,1.10677 -1.54948,2.32422 l -0.66406,0.88542 -0.55339,0.88541 q -1.4388,2.21355 -2.87761,4.20574 -3.54167,4.8698 -6.41928,8.63282 -16.82294,21.36071 -22.3568,16.04821 -5.42319,-5.31251 -4.53777,-15.38414 1.43881,-7.41538 1.99219,-12.94924 1.43881,-15.93752 -4.20573,-22.68884 -3.87371,-4.75912 -10.07163,-6.19792 -17.26565,-3.87371 -27.00525,20.80732 -3.54167,8.85418 -5.8659,20.80732 -0.88541,4.75913 -1.54948,9.62892 -0.55338,3.98439 -0.88541,7.85809 -4.31642,44.60293 12.17449,79.35559 4.98048,10.51434 10.7357,15.49481 8.19011,6.97267 17.15497,2.32422 6.3086,-3.32031 7.63673,-10.84637 0.88542,-5.3125 -0.55339,-15.38413 l -0.66406,-4.09506 -0.66406,-3.98438 q -0.66407,-4.75912 -0.77474,-7.85809 -0.33204,-8.52215 3.09896,-12.83856 5.20183,-6.52996 12.06382,-2.54558 2.54558,1.43881 5.42318,4.42709 1.10678,1.10678 2.32423,2.54558 0.88541,0.9961 1.99219,2.4349 2.98828,3.8737 8.19011,12.61721 l 1.99219,3.43099 2.10287,3.431 q 2.4349,3.98438 4.42709,6.86199 10.95705,15.82684 24.12764,17.15497 6.86199,0.66406 10.40366,-2.54558 3.431,-2.98828 4.98048,-10.40366 1.66016,-7.41537 -3.20964,-14.49872 z"
           style="font-family:Simpsonfont;-inkscape-font-specification:'Simpsonfont Bold'"
           id="path11040" />
        <path
           d="m 807.30964,614.67179 q -3.43099,0.66406 -3.8737,0.77474 -0.33203,0 1.21745,-0.33203 1.66016,-0.33204 2.54557,-0.55339 1.21745,-0.22135 0.11068,0.11068 -17.59768,3.43099 -23.02087,-3.98438 -4.98047,-6.75132 -0.99609,-24.12764 0.22135,-0.88542 0.77474,-3.87371 0.22135,-1.54948 0.44271,-2.54557 l 0.55338,-2.87761 q 1.54949,-7.3047 3.431,-12.39586 5.42318,-15.27346 14.27736,-13.05991 4.64845,1.21745 7.3047,8.85418 0.77474,2.54558 1.66016,6.41928 l 0.33203,1.54948 0.33204,1.43881 q 0.33203,1.66015 0.66406,2.65625 0.55339,1.99219 1.77084,5.97657 l 0.99609,3.09896 0.9961,3.09897 q 2.10286,7.52605 2.4349,12.39585 0.99609,13.50262 -11.95315,17.37633 z M 844.27584,602.94 q -1.54948,-10.73569 -3.43099,-19.81123 -2.65626,-12.50653 -5.97657,-22.46748 -8.96486,-26.56254 -22.68884,-35.08469 -21.13935,-13.17059 -39.06907,12.72788 -6.3086,9.18622 -12.28517,23.24223 -2.10287,4.98047 -4.42709,11.1784 -0.77474,2.10287 -1.77084,4.8698 l -0.77474,2.21354 -0.77474,1.99219 q -2.76693,7.63673 -7.19402,19.14717 l -7.41538,19.36852 q -8.7435,23.13154 -13.39194,38.84771 -3.20964,10.51434 -0.11068,16.38023 3.54167,6.52996 13.72398,2.32423 9.7396,-4.09506 15.16278,-15.6055 l 2.10287,-4.86979 2.21354,-4.8698 q 2.76693,-5.64454 5.97657,-9.18622 4.09506,-4.53776 19.92191,-5.53386 5.42318,-0.22135 12.50653,-0.11067 2.32422,0 5.31251,0.11067 h 1.21745 0.99609 q 1.21745,0.11068 1.88152,0.11068 13.50262,0.33203 18.70445,3.98438 6.86199,4.8698 5.64454,17.59768 -0.11068,1.43881 -0.55339,4.20574 l -0.33203,2.4349 -0.33203,2.32422 q -0.77474,6.08725 -0.44271,9.7396 0.88542,11.06772 11.51044,11.39976 17.487,-0.55339 13.39194,-37.74095 -1.32812,-11.51043 -4.98047,-28.77608 -0.55339,-2.54558 -1.43881,-6.3086 l -0.66406,-2.87761 -0.55339,-2.76693 q -1.21745,-5.75522 -1.66016,-8.19012 z"
           style="font-family:Simpsonfont;-inkscape-font-specification:'Simpsonfont Bold'"
           id="path11042" />
      </g>
      <g
         aria-label="M "
         transform="matrix(0.3389226,0,0,0.42830348,33.316085,-107.96348)"
         id="text4798"
         style="font-weight:bold;font-size:226.667px;font-family:'Microsoft Tai Le';-inkscape-font-specification:'Microsoft Tai Le Bold';white-space:pre;shape-inside:url(#rect4800);display:inline;fill:#84dcc6;stroke:#478978;stroke-width:0;stroke-linecap:round">
        <path
           d="m 398.35717,634.70437 q -4.42709,-13.6133 -9.96095,-32.98182 l -4.8698,-16.60159 -4.75912,-16.60159 -2.21355,-8.07944 -2.32422,-8.07943 q -2.76693,-9.62893 -5.09116,-16.26956 -6.41928,-18.37242 -15.27346,-29.99353 -2.10286,-2.76694 -4.75912,-5.31251 -3.09896,-3.09897 -6.3086,-4.98048 -8.07944,-4.98048 -14.16669,-1.4388 -9.96095,5.86589 -18.04039,20.69664 -2.87761,5.31251 -6.08725,13.05992 -0.99609,2.32422 -2.65625,6.41928 l -1.32813,3.09896 -1.21745,2.98829 q -0.66406,1.4388 -2.4349,5.97657 -0.88542,2.32422 -1.4388,3.8737 -0.88542,2.21355 -1.66016,4.09506 -4.42709,10.84637 -8.63283,18.04039 -12.50653,21.9141 -25.56644,17.92972 -9.18621,-2.87761 -13.50263,-17.37633 -1.32812,-4.64845 -2.65625,-12.28518 l -0.55339,-2.8776 -0.44271,-2.87761 q -0.55338,-3.09897 -0.99609,-4.98048 -1.54948,-7.19402 -3.431,-12.61721 -2.32422,-7.19402 -5.42318,-12.39585 -7.74741,-13.39194 -20.14326,-15.49481 -15.27346,-2.54558 -26.34119,16.26955 -8.96485,15.16279 -13.72398,23.68493 -7.63673,13.39195 -13.17059,24.45968 -14.05601,27.89066 -20.36461,51.13289 -2.10287,7.63673 -1.32813,14.27736 0.77474,8.7435 6.3086,12.39585 9.18622,6.08725 16.82295,-3.8737 2.76693,-3.54167 5.3125,-9.07554 0.88542,-2.21354 1.88152,-4.64844 0.66406,-1.77084 1.32812,-3.8737 l 2.76694,-8.19012 2.76693,-8.19012 q 3.20964,-9.29689 6.3086,-15.93752 8.19012,-17.37633 20.03258,-27.44796 12.50653,-10.62501 20.25394,12.06382 1.32813,4.09506 2.76693,9.51825 0.88542,3.8737 2.10287,9.51824 2.54557,12.06382 3.20964,14.05601 4.8698,14.38804 13.17059,20.03258 9.7396,6.86199 21.13936,-1.77083 9.51824,-7.19403 18.37242,-19.4792 5.97657,-8.41147 13.94533,-23.02087 0.88542,-1.54948 3.20964,-6.3086 l 0.9961,-1.99219 1.10677,-2.10287 q 1.21745,-2.4349 2.32422,-4.53777 6.19793,-11.73179 11.39976,-18.59377 15.93752,-20.80733 27.11593,-2.21355 5.42318,8.85418 9.29688,24.45967 l 1.54949,6.52996 1.4388,6.52996 q 1.77084,8.07944 2.98829,12.6172 l 15.60549,56.00269 0.66406,2.10287 0.55339,2.21355 q 0.77474,2.76693 1.4388,4.75912 1.77084,5.86589 3.76303,9.85027 5.64454,10.95705 14.83075,10.95705 16.49091,0 13.83466,-22.02477 -0.88542,-7.41538 -4.09506,-17.59769 -0.9961,-3.32031 -2.4349,-7.63673 l -0.55339,-1.66015 -0.55338,-1.54949 q -0.55339,-1.66015 -0.88542,-2.54557 z"
           style="font-family:Simpsonfont;-inkscape-font-specification:'Simpsonfont Bold'"
           id="path11045" />
      </g>
      <path
         style="fill:#4abfa1;fill-opacity:1;stroke:#478978;stroke-width:0;stroke-linecap:round;stroke-dasharray:none;stroke-opacity:1"
         d="m 81.129165,153.92621 c 0.0345,-0.0423 0.37449,-0.76658 0.60954,-0.62556 0.10847,0.0651 0.0741,0.48014 0.0749,0.51969 0.0192,1.0529 -0.16355,2.33487 -0.5026,3.32987 -0.28037,0.82281 -0.68351,1.61933 -0.79133,2.4926 -0.0497,0.40288 0.003,0.809 -0.0321,1.21261 -0.0644,0.74367 -0.20439,1.49335 -0.1711,2.24237 0.0192,0.43102 0.10857,0.85796 0.13902,1.2896 0.0452,0.64017 0.0563,1.28075 0.22457,1.90553 0.17765,0.65951 0.42449,1.2938 0.63092,1.94403 0.23614,0.74382 0.44127,1.96041 0.95174,2.54071 0.51012,0.57991 2.89632,0.72688 3.57168,0.50045 1.28289,-0.43013 1.72098,-1.93943 2.26705,-3.03153 0.6847,-1.36934 1.26549,-2.71204 1.61474,-4.21527 0.18947,-0.81552 0.28277,-1.65142 0.43844,-2.47335 0.20584,-1.08681 0.55321,-2.13199 0.73786,-3.22401 0.0613,-0.36258 0.33354,-1.9037 0.0535,-2.15575 -0.2139,-0.1925 -1.2746,1.38351 -1.35809,1.54945 -0.75617,1.50281 -1.80175,4.92621 -3.67862,5.25465 -0.91824,0.16069 -1.137,-0.246 -1.72168,-0.86615 -2.09446,-2.22154 -1.68822,-4.70863 -2.06387,-7.52589 -0.0329,-0.24668 -0.85549,-3.01592 -0.85549,-1.28961"
         id="path9925" />
      <path
         style="fill:#4abfa1;fill-opacity:1;stroke:#478978;stroke-width:0;stroke-linecap:round;stroke-dasharray:none;stroke-opacity:1"
         d="m 107.6922,140.06778 c 0.51404,0.72305 0.6795,1.62349 0.88757,2.47335 0.2577,1.05253 0.40902,2.10567 0.56676,3.17588 0.21083,1.43032 0.49408,2.86618 0.73787,4.29227 0.39615,2.3174 0.9938,4.61623 1.71098,6.85222 0.207,0.64538 0.33371,1.31329 0.55607,1.95365 0.23352,0.67251 0.68975,1.2364 0.96243,1.89591 0.37427,0.90523 0.87652,2.17731 1.64682,2.83905 0.72569,0.6234 1.75604,1.0206 2.66272,1.29923 1.15133,0.35381 1.39259,0.42999 2.60925,0.14436 0.31146,-0.0731 0.71844,-0.13405 0.99451,-0.30797 0.27206,-0.17139 0.37227,-0.53141 0.62023,-0.74104 0.27053,-0.22871 0.57893,-0.33751 0.86619,-0.52931 0.56527,-0.37744 1.01804,-1.03191 1.49711,-1.51096 0.27711,-0.2771 0.62837,-0.48658 0.87688,-0.78916 0.71556,-0.87126 1.22531,-1.92599 1.86069,-2.8583 0.32255,-0.47328 0.64244,-1.00029 1.0159,-1.43396 0.5868,-0.68142 1.183,-1.33093 1.71098,-2.05951 0.32074,-0.44261 0.79258,-0.89799 1.00521,-1.40509 0.28451,-0.67855 0.36574,-1.42442 0.52398,-2.13651 0.10366,-0.46642 0.27502,-0.89416 0.41706,-1.34735 0.45166,-1.44116 1.80083,-3.01268 1.52919,-4.5906 -0.0527,-0.30591 -0.16276,-0.89247 -0.59885,-0.91427 -0.0783,-0.004 -0.17026,-0.0439 -0.23526,0 -0.78192,0.52777 -1.74566,2.27675 -2.32052,3.07003 -1.1016,1.52014 -2.05451,3.19422 -3.30434,4.60022 -1.14489,1.28795 -2.39552,2.15738 -3.97803,2.81981 -0.3542,0.14826 -0.67231,0.29948 -1.05868,0.35608 -0.5615,0.0823 -1.13404,0.077 -1.70028,0.077 -0.17028,0 -0.83558,0.009 -1.05868,-0.0193 -1.79877,-0.2283 -2.5548,-3.30468 -3.1867,-4.69647 -0.53015,-1.16766 -1.15434,-2.27677 -1.64683,-3.4646 -0.79028,-1.9061 -1.50939,-3.93491 -2.81242,-5.57224 -0.0935,-0.11755 -0.19272,-0.23109 -0.29943,-0.33684 -0.4134,-0.40967 -2.67825,-2.25287 -3.5289,-1.92478 -0.13534,0.0522 0.0275,0.28882 0.0428,0.43308"
         id="path9927" />
      <path
         style="fill:#4abfa1;fill-opacity:1;stroke:#478978;stroke-width:0;stroke-linecap:round;stroke-dasharray:none;stroke-opacity:1"
         d="m 92.000315,126.76907 c 0.87972,-1.87978 1.23675,-3.95013 2.30983,-5.74363 0.60349,-1.00864 1.11683,-2.06269 1.74306,-3.0604 0.44059,-0.70192 0.95148,-1.33737 1.44365,-2.00177 0.51005,-0.68853 0.98218,-1.39931 1.5185,-2.06914 0.28388,-0.35454 0.60027,-0.67823 0.90896,-1.01051 0.294785,-0.31731 0.555075,-0.70343 0.898265,-0.97201 0.22125,-0.17314 1.74505,-0.69163 1.99972,-0.75067 0.18173,-0.0421 0.34154,0.0667 0.51329,0.0866 0.21889,0.0254 0.47491,0.0255 0.69509,0.01 1.12085,-0.0807 2.18163,-0.35021 3.26156,0.11549 0.9072,0.39121 1.28391,1.22694 1.88208,1.92478 0.39206,0.45738 0.96779,0.66443 1.31532,1.17412 0.23312,0.34188 0.39756,0.72521 0.63093,1.06825 0.44925,0.66037 0.8883,1.33847 1.21907,2.06914 0.30728,0.67877 0.4831,1.40647 0.75925,2.09801 0.39378,0.98611 0.87821,1.98792 1.13353,3.02191 0.25957,1.05123 0.35828,2.0763 0.47052,3.14701 0.0988,0.94295 0.18122,1.89042 0.20318,2.83905 0.007,0.30162 0.0921,0.72719 0.0107,1.02014 -0.0298,0.1072 -0.16916,0.14261 -0.21388,0.18285 -7.9e-4,8e-4 -0.1591,-0.40795 -0.1711,-0.46195 -0.0293,-0.13178 -0.11474,-0.091 -0.19248,-0.2021 -0.17319,-0.24755 -0.28173,-0.53595 -0.42775,-0.79878 -0.71449,-1.28604 -1.37898,-2.59362 -2.04248,-3.90731 -0.35549,-0.70382 -0.65815,-1.43404 -1.0159,-2.1365 -0.54342,-1.06703 -1.2144,-2.0281 -1.96763,-2.95454 -0.32855,-0.4041 -0.68547,-0.81472 -1.12283,-1.10675 -1.35019,-0.90154 -3.28868,-0.7054 -4.75868,-0.29834 -1.7526,0.48531 -3.193955,1.43714 -4.320235,2.87755 -0.32905,0.42081 -0.32691,1.07273 -0.48122,1.56869 -0.12762,0.41019 -0.35407,0.80015 -0.52399,1.19337 -0.42216,0.97696 -0.9995,1.56627 -1.8393,2.16537 -0.85148,0.60744 -1.59425,1.18374 -2.68411,1.18374 -0.13409,0 -0.39014,0.0411 -0.51329,0 -0.22026,-0.0735 -0.42775,-0.18087 -0.64162,-0.27131 z"
         id="path9933" />
      <path
         style="fill:#4abfa1;fill-opacity:1;stroke:#478978;stroke-width:0;stroke-linecap:round;stroke-dasharray:none;stroke-opacity:1"
         d="m 132.9506,145.28394 c -0.4203,-0.009 -0.84662,0.044 -1.26091,-0.0274 -0.13462,-0.0232 0.11513,-0.24805 0.18148,-0.36748 0.47908,-0.8623 0.64869,-0.93721 1.45182,-1.40185 0.0677,-0.0391 0.42847,-0.32758 0.51418,-0.20416 0.20637,0.29715 0.0332,1.90859 -0.36295,2.00071 -0.17,0.0395 -0.43315,-0.14907 -0.52362,2e-4 0.11073,1.18507 0.21397,0.49256 0.009,0.83003 -0.0819,0.13506 -0.16621,0.26383 -0.2571,0.39469 -0.0166,0.0238 -0.0363,0.11005 -0.0302,0.0817 0.0936,-0.43527 0.18526,-0.87093 0.2779,-1.30639"
         id="path9935" />
      <path
         style="fill:#4abfa1;fill-opacity:1;stroke:#478978;stroke-width:0;stroke-linecap:round;stroke-dasharray:none;stroke-opacity:1"
         d="m 157.53507,169.14252 c 0.65266,2.64019 0.82098,5.35904 1.3762,8.01644 0.76928,3.6819 1.82451,7.28866 4.9755,9.60884 0.75801,0.55815 1.51148,1.03413 2.4197,1.30659 0.9123,0.27368 1.98306,0.49986 2.81289,-0.1225 0.61378,-0.46031 1.01958,-1.36396 1.42158,-2.0007 0.26171,-0.41455 0.7026,-0.77446 0.87714,-1.23854 0.53792,-1.43033 0.69636,-3.21185 0.62004,-4.72275 -0.0328,-0.65033 -0.22593,-1.30292 -0.31758,-1.94627 -0.0813,-0.57043 -0.0971,-1.16794 -0.24197,-1.72851 -0.11561,-0.44737 -0.26884,-0.87681 -0.34783,-1.3338 -0.1366,-0.79028 -0.17977,-1.59722 -0.33271,-2.3818 -0.29614,-1.51914 -1.11046,-4.41794 -2.14748,-5.56659 -0.55505,-0.6148 -0.80265,1.10827 -0.86202,1.41547 -0.27759,1.43649 -0.66811,5.38877 -1.5728,6.39682 -0.47941,0.53417 -1.48619,0.6979 -2.13236,0.42192 -2.55175,-1.08986 -3.56006,-4.55126 -5.02087,-6.69625 -0.3746,-0.55005 -1.76641,-0.78727 -1.72403,0.0136 0.0104,0.19694 0.13106,0.37201 0.1966,0.55802 z"
         id="path9937" />
      <path
         style="fill:#4abfa1;fill-opacity:1;stroke:#478978;stroke-width:0;stroke-linecap:round;stroke-dasharray:none;stroke-opacity:1"
         d="m 139.85617,109.73375 c 1.2483,-1.85548 1.91952,-3.78264 3.61442,-5.308 0.37366,-0.33628 0.67496,-0.68311 1.19472,-0.70773 0.74876,-0.0355 1.88365,-0.15463 2.57092,0 1.13446,0.25524 4.26959,2.09693 5.09649,2.98064 0.78606,0.84008 1.09638,1.89916 1.5728,2.9126 0.36868,0.78425 0.80819,1.53452 0.92251,2.40902 0.0813,0.62195 0.33962,2.19403 -0.0605,2.70844 -0.26716,0.34348 -0.52377,0.0283 -0.72591,-0.20416 -0.40456,-0.46523 -0.60453,-1.03849 -0.95275,-1.53796 -0.50081,-0.71832 -1.05406,-1.43221 -1.72404,-2.0007 -0.60704,-0.51511 -1.21493,-1.07302 -1.89039,-1.49713 -1.96957,-1.23666 -5.83813,-2.01692 -8.04548,-0.99355 -0.54846,0.25428 -1.10192,0.87202 -1.5728,1.23853 z"
         id="path9941" />
      <path
         style="fill:#4abfa1;fill-opacity:1;stroke:#478978;stroke-width:0;stroke-linecap:round;stroke-dasharray:none;stroke-opacity:1"
         d="m 177.91917,161.12048 c -0.0903,0.2823 -0.20734,0.55742 -0.27103,0.8469 -0.13564,0.61646 -0.0133,1.38905 -0.0855,2.02102 -0.18478,1.61546 -0.43975,3.23786 -0.19249,4.86969 0.0723,0.4773 0.15998,1.1095 0.42775,1.52058 0.68066,1.04498 2.61558,1.29816 3.57168,0.53894 1.59256,-1.26464 2.86683,-3.33345 2.95144,-5.38939 0.007,-0.16275 0.10286,-2.31737 0.0642,-2.32898 -0.94537,-0.2836 -1.45175,2.72791 -2.56648,2.07876 -1.61286,-0.93921 -1.24728,-5.0496 -3.89949,-4.15752 -1.22845,0.41319 -1.11631,0.25554 -1.25,0.93792"
         id="path9943" />
      <path
         style="fill:#4abfa1;fill-opacity:1;stroke:#478978;stroke-width:0;stroke-linecap:round;stroke-dasharray:none;stroke-opacity:1"
         d="m 195.95566,166.17583 c 0.44914,0.34232 0.90066,0.68152 1.3474,1.02695 1.06076,0.82021 2.24238,1.85288 3.59307,2.13651 3.0447,0.63936 5.62638,-1.77791 4.91908,-4.8697 -0.14162,-0.61906 -3.01518,-4.27318 -3.91388,-3.92655 -1.14923,0.44326 0.48922,3.50552 -0.0642,4.00354 -0.9878,0.88899 -3.67865,-0.35966 -4.85492,0.65443 -0.3574,0.30813 -0.87651,0.52742 -1.02659,0.97482 -0.11863,0.35365 0.18309,0.72807 0.3422,1.06545 0.0483,0.10247 0,-0.22659 0,-0.33988"
         id="path9945" />
      <path
         style="fill:#4abfa1;fill-opacity:1;stroke:#478978;stroke-width:0;stroke-linecap:round;stroke-dasharray:none;stroke-opacity:1"
         d="m 195.92865,125.80075 c 1.82123,1.65722 3.07617,3.75149 4.19754,5.90907 0.26174,0.50361 0.5626,0.99297 0.72717,1.53983 1.0577,3.51471 0.59952,7.29207 -0.23527,10.79802 -0.31038,1.30357 -1.09075,2.87825 -1.09075,4.17677 0,1.07462 2.26987,-1.53748 2.28844,-1.55907 1.5658,-1.82016 3.25654,-4.13086 3.80694,-6.525 0.74917,-3.25874 -0.18005,-6.51902 -2.16011,-9.12347 -0.37776,-0.49687 -0.88689,-0.80977 -1.30463,-1.2511 -1.88524,-1.99172 -3.49826,-3.28727 -6.22933,-3.96505 z"
         id="path9947" />
      <path
         style="fill:#4abfa1;fill-opacity:1;stroke:#478978;stroke-width:0;stroke-linecap:round;stroke-dasharray:none;stroke-opacity:1"
         d="m 224.55048,122.6826 c 0.65253,-0.60285 1.4194,-1.07571 2.07457,-1.67456 1.13899,-1.04107 2.02323,-2.34052 3.16532,-3.36836 1.54394,-1.3895 3.26899,-2.55703 4.81214,-3.9458 0.2832,-0.25487 0.53127,-0.55511 0.81272,-0.80841 0.2148,-0.19332 1.6048,-0.74356 1.86069,-0.63518 0.97305,0.4121 1.96288,1.68524 2.45954,2.57921 0.61939,1.11485 -0.32109,2.50189 -1.0052,3.32987 -1.28833,1.55926 -2.96045,2.43708 -4.57688,3.58009 -0.73447,0.51935 -1.41501,1.08151 -2.18151,1.55907 -0.96741,0.60275 -4.94821,2.01602 -5.92428,2.07877 -1.45888,0.0938 -1.1763,-0.16844 -1.1763,-1.52058 0,-0.15546 0.11422,-0.31477 0.0642,-0.46195 -0.0869,-0.25548 -0.50937,-0.4727 -0.38497,-0.71217 0.2133,-0.41057 0.76994,-0.51327 1.15492,-0.76991"
         id="path9949" />
      <path
         style="fill:#4abfa1;fill-opacity:1;stroke:#478978;stroke-width:0;stroke-linecap:round;stroke-dasharray:none;stroke-opacity:1"
         d="m 209.15163,146.59603 c 0.0528,2.15433 -0.0339,4.30704 -0.0642,6.45961 -0.0346,2.46042 -0.0872,4.97118 0.8555,7.29492 0.46009,1.13419 1.93663,1.85839 2.82312,2.6562 0.60241,0.54215 0.98344,1.30154 1.60405,1.80929 0.46143,0.37753 1.11918,0.85271 1.68959,1.03939 0.18873,0.0618 0.38987,0.005 0.57746,0.0577 1.35508,0.3811 2.52233,1.15728 4.02081,0.73142 0.59518,-0.16915 4.54616,-1.56571 4.85492,-1.98253 0.19391,-0.26177 0.1086,-1.04496 0,-1.30885 -0.53292,-1.29494 -2.05019,-0.86525 -3.07977,-1.17411 -2.77041,-0.83109 -6.02919,-0.69635 -8.36243,-2.6562 -2.07909,-1.74636 -3.43918,-5.22313 -3.65723,-7.87235 -0.085,-1.03228 0.23672,-3.39636 -0.47052,-4.27302 -0.23278,-0.28854 -0.52756,-0.521 -0.79133,-0.78151 z"
         id="path9953" />
      <path
         style="fill:#4abfa1;fill-opacity:1;stroke:#478978;stroke-width:0;stroke-linecap:round;stroke-dasharray:none;stroke-opacity:1"
         d="m 279.36154,132.27608 c -0.32359,0.4756 -0.79063,0.89396 -1.0052,1.44359 -0.42889,1.09859 -1.1842,4.48976 -0.55605,5.62036 0.1951,0.35119 0.58311,0.58961 0.94101,0.75067 1.52845,0.68776 1.54051,-1.06999 2.65203,-1.71306 0.71273,-0.41235 1.61031,-0.4147 2.41678,-0.30796 1.22523,0.16215 2.55998,0.84494 3.3578,1.77079 0.58746,0.68172 1.17944,2.04888 2.16011,2.23275 1.94239,0.36418 1.88209,-1.97383 1.88209,-3.25288 0,-1.06665 -0.24826,-1.77891 -0.64161,-2.75244 -1.32369,-3.27599 -3.22916,-4.87515 -6.77979,-5.33164 -0.88731,-0.11408 -1.8024,-0.0577 -2.69478,-0.0577 -1.35962,0 -1.77123,-0.11527 -1.73239,1.59756 z"
         id="path9955" />
      <path
         style="fill:#4abfa1;fill-opacity:1;stroke:#478978;stroke-width:0;stroke-linecap:round;stroke-dasharray:none;stroke-opacity:1"
         d="m 246.78869,146.59599 c 0.40222,-0.92049 0.64138,-1.90814 1.24047,-2.73273 0.33715,-0.46406 0.70066,-0.89868 1.15491,-1.2511 0.41124,-0.31905 3.09448,-1.94728 3.59307,-1.3666 0.92107,1.07274 1.01433,3.58797 0.74855,4.92744 -0.11812,0.5953 -0.39877,1.14112 -0.53468,1.7323 -0.10314,0.44863 -0.27047,1.47831 -0.8341,1.52058 -0.89368,0.067 -1.28782,-1.64548 -1.88209,-2.09801 -0.49742,-0.37879 -1.2045,-0.1873 -1.77514,-0.26947 -0.60373,-0.0869 -1.1345,-0.25453 -1.71099,-0.46241 z"
         id="path9957" />
      <path
         style="fill:#4abfa1;fill-opacity:1;stroke:#478978;stroke-width:0;stroke-linecap:round;stroke-dasharray:none;stroke-opacity:1"
         d="m 258.93668,149.42779 c -0.31602,1.12436 -0.56552,2.26479 -0.81272,3.40495 -0.14518,0.66962 -0.51943,3.40817 -0.21387,4.06129 0.0479,0.10229 0.36906,0.27373 0.47052,0.30796 0.75796,0.25581 1.62772,-1.16704 2.3526,-1.53982 0.44905,-0.23093 2.62599,0.37344 3.2081,0.50044 0.60633,0.13229 1.2052,0.32925 1.77514,0.57744 0.35886,0.15627 1.41619,0.92231 1.58266,0.17323 0.09,-0.40518 0.0642,-0.87418 0.0642,-1.2896 0,-0.37634 0.0452,-0.80445 -0.0214,-1.17412 -0.16541,-0.91796 -1.90219,-2.18413 -2.54509,-2.86792 -0.54645,-0.5812 -0.91315,-1.28721 -1.49712,-1.84779 -1.09508,-1.05125 -3.13261,-1.40093 -4.363,-0.30606 -0.3748,0.33351 -0.61311,0.7943 -0.91966,1.19146"
         id="path9959" />
      <path
         style="fill:#4abfa1;fill-opacity:1;stroke:#478978;stroke-width:0;stroke-linecap:round;stroke-dasharray:none;stroke-opacity:1"
         d="m 267.37829,164.09271 c 0.68307,0.39062 1.36309,0.78826 2.05955,1.15487 2.25949,1.18938 3.36328,1.13667 5.79596,1.23186 0.31811,0.0125 0.97253,0.26472 1.26185,0.0962 0.63466,-0.36957 1.25251,-0.8719 1.86069,-1.2896 0.60076,-0.41261 2.08351,-2.01858 1.49711,-2.81019 -0.52662,-0.71091 -1.65462,0.0709 -2.18149,0.30797 -1.0813,0.48656 -2.111,0.50592 -3.27226,0.61593 -1.04951,0.0994 -2.0942,0.26773 -3.14394,0.34646 -1.63408,0.12255 -2.25236,-0.28533 -3.87747,0.34646 z"
         id="path9961" />
      <path
         style="fill:#4abfa1;fill-opacity:1;stroke:#478978;stroke-width:0;stroke-linecap:round;stroke-dasharray:none;stroke-opacity:1"
         d="m 296.64248,135.25949 c 0.0428,-0.38495 0.0595,-0.7737 0.12833,-1.15486 0.17616,-0.97553 2.54259,-4.68602 3.42196,-5.33165 0.54583,-0.40073 1.17639,-0.55674 1.77514,-0.8469 0.71909,-0.34845 1.47476,-0.72157 2.30984,-0.55819 0.47585,0.0931 0.90141,0.56995 1.30463,0.80841 0.25906,0.15321 0.55518,0.25041 0.79132,0.4427 0.22479,0.18303 1.77453,2.17847 1.86071,2.42522 0.53438,1.53022 -0.34346,4.6078 -1.13353,5.92833 -0.14727,0.24611 -0.29522,0.63002 -0.66302,0.51969 -0.36523,-0.10957 -0.58981,-1.82914 -0.74856,-2.19425 -0.34962,-0.80415 -1.12628,-1.64774 -1.96763,-1.94403 -1.32855,-0.46787 -3.47998,0.12097 -4.64103,0.90465 -0.3434,0.23178 -1.06187,1.03014 -1.49711,1.05863 -0.31361,0.0205 -0.62736,-0.0385 -0.94105,-0.0577 z"
         id="path9963" />
      <path
         style="fill:#4abfa1;fill-opacity:1;stroke:#478978;stroke-width:0;stroke-linecap:round;stroke-dasharray:none;stroke-opacity:1"
         d="m 318.30781,132.42 c 0.32081,-0.0865 0.65296,-0.13851 0.96245,-0.2594 0.6409,-0.25036 1.69362,-1.19518 2.54508,-1.57832 1.42729,-0.64226 3.15947,-0.76991 4.70519,-0.76991 0.56322,0 1.4559,-0.0744 1.79655,0.50044 0.25521,0.43065 0.21606,0.91099 0.25664,1.38584 0.0412,0.48226 0.0749,1.01941 0.0214,1.50133 -0.17137,1.54225 -1.5468,3.75728 -3.25085,3.83031 -1.44907,0.0621 -1.09876,-2.27227 -1.92487,-2.98341 -1.19486,-1.02858 -3.59984,-1.20875 -5.11157,-1.62688 z"
         id="path9965" />
      <path
         style="fill:#4abfa1;fill-opacity:1;stroke:#478978;stroke-width:0;stroke-linecap:round;stroke-dasharray:none;stroke-opacity:1"
         d="m 296.64248,159.55023 c 0.0214,0.39779 -0.0106,0.80206 0.0642,1.19336 0.18971,0.99426 1.00296,1.8824 1.41156,2.79093 0.50091,1.11374 0.74273,3.03973 1.51852,3.9843 0.29623,0.36071 0.81388,0.34879 1.21907,0.46195 0.35978,0.10049 0.68617,0.29451 1.04796,0.38496 1.01198,0.25297 2.13074,0.13473 3.16534,0.13473 0.29305,0 1.13673,0.18274 1.36877,0 0.82875,-0.65262 1.48929,-5.31402 1.09077,-6.23629 -0.28903,-0.66887 -0.7924,-1.87361 -1.64684,-2.00177 -0.67562,-0.10134 -0.38606,2.28289 -2.18149,2.44447 -1.40253,0.12622 -2.89873,-0.84396 -3.82834,-1.80929 -0.35819,-0.37196 -0.62587,-0.85199 -1.0052,-1.19337 -0.35029,-0.31525 -1.93715,-0.88753 -2.22428,-0.15398 -0.21973,0.56138 0.48112,2.08574 0,0.96967"
         id="path9967" />
      <path
         style="fill:#4abfa1;fill-opacity:1;stroke:#478978;stroke-width:0;stroke-linecap:round;stroke-dasharray:none;stroke-opacity:1"
         d="m 316.89626,162.18405 c 0.17822,0.0909 0.38473,0.14016 0.53467,0.2726 0.67789,0.59872 0.94538,1.6494 1.51852,2.34823 0.77909,0.94995 2.26851,1.70115 3.44334,2.13651 0.75121,0.27838 1.53731,0.28872 2.33122,0.28872 0.38163,0 0.82373,0.0649 1.19769,-0.0193 0.28109,-0.0632 0.5643,-0.32221 0.81272,-0.46194 1.64581,-0.92575 1.62692,-3.23449 1.34739,-4.8697 -0.17875,-1.0457 -0.35573,-1.89097 -1.32601,-2.50221 -0.22792,-0.14359 -1.98673,-0.96859 -2.2029,-0.38496 -0.24926,0.67302 0.0596,1.47304 -0.49191,2.04027 -0.56293,0.57899 -1.8537,0.5346 -2.56646,0.59668 -0.70527,0.0614 -3.66916,0.009 -3.8925,0.11548 -0.25005,0.11953 -0.4705,0.29305 -0.70577,0.43958 z"
         id="path9971" />
      <path
         style="fill:#4abfa1;fill-opacity:1;stroke:#478978;stroke-width:0;stroke-linecap:round;stroke-dasharray:none;stroke-opacity:1"
         d="m 323.4194,134.04688 c 0.34526,0.37782 0.71977,0.73086 1.03579,1.13346 0.18897,0.24076 0.22273,2.42154 0.1497,2.84867 -0.009,0.0517 -0.226,0.76446 -0.1711,0.78916 0.55726,0.25076 2.47949,-2.25153 2.11735,-3.0219 -0.42786,-0.91012 -1.56263,-0.26774 -1.99972,-0.65443 -0.3932,-0.34785 -0.75467,-0.72997 -1.13202,-1.09496"
         id="path9973" />
      <path
         style="fill:#4abfa1;fill-opacity:1;stroke:#478978;stroke-width:0;stroke-linecap:round;stroke-dasharray:none;stroke-opacity:1"
         d="m 323.4194,134.04688 c 0.23119,-0.007 0.46736,-0.0696 0.69358,-0.0214 0.0491,0.0105 0.24643,1.07411 0.26733,1.22224 0.0692,0.49018 0.17111,0.99605 0.17111,1.49171 0,0.17647 0.0156,0.35196 -0.0428,0.51969 -0.0225,0.065 -0.0428,0.27096 -0.0428,0.2021 0,-0.0408 0.0677,-0.38826 0.0962,-0.33684 0.029,0.0523 0,0.27037 0,0.31759 0,0.20946 -0.38071,1.41182 -0.3315,1.43396 0.49779,0.224 1.1919,-0.98469 1.46503,-1.27035 0.48958,-0.51206 0.65143,-1.13951 0.8555,-1.8093"
         id="path9975" />
      <path
         style="fill:#4abfa1;fill-opacity:1;stroke:#478978;stroke-width:0;stroke-linecap:round;stroke-dasharray:none;stroke-opacity:1"
         d="m 323.4194,134.04688 c 0.0138,-0.17074 0.21201,-0.49847 0.0413,-0.51223 -0.17074,-0.0138 -0.0898,0.34794 -0.0413,0.51223 0.0779,0.26397 0.29316,0.46807 0.40487,0.71963 0.0533,0.12014 0.0579,0.25645 0.0855,0.38496 0.20367,0.94708 0.19081,1.94436 0.0321,2.89679 -0.0506,0.3039 -0.13597,0.60669 -0.16039,0.91427 -0.0609,0.7667 0.78989,0.16786 1.05868,-0.0481 0.89614,-0.72008 1.70416,-1.9312 1.64682,-3.11814 -0.0383,-0.79162 -1.09993,-0.88057 -1.64682,-1.09713 -0.53996,-0.21381 -0.82918,-0.54573 -1.42076,-0.65226 z"
         id="path9977" />
      <path
         style="fill:#4abfa1;fill-opacity:1;stroke:#478978;stroke-width:0;stroke-linecap:round;stroke-dasharray:none;stroke-opacity:1"
         d="m 305.6893,135.29799 c 0.11713,-0.0841 0.20863,-0.2727 0.35142,-0.25239 0.0394,0.006 0.37105,1.08131 0.4812,1.51095 0.093,0.3626 0.11922,0.82848 0.13904,1.20299 0.007,0.13413 0.0106,0.26978 0.0106,0.40421 0,0.0547 0.0106,0.21826 0.0106,0.16361 0,-0.13795 0,-0.27589 0,-0.41383 0,-0.0385 0,-0.15399 0,-0.11549 0,0.24942 0.0314,0.48787 0.0855,0.73142 0.0446,0.20085 0.21029,-0.21902 0.21389,-0.23098 0.12454,-0.41536 0.3198,-0.92285 0.11912,-1.32593"
         id="path9979" />
      <path
         style="fill:#4abfa1;fill-opacity:1;stroke:#478978;stroke-width:0;stroke-linecap:round;stroke-dasharray:none;stroke-opacity:1"
         d="m 306.04072,135.0456 c -0.1212,-0.0609 -0.30263,-0.30405 -0.36359,-0.18285 -0.061,0.12119 0.34491,0.0485 0.36359,0.18285 0.0294,0.21154 -0.20262,0.38044 -0.25664,0.58706 -0.0596,0.22776 0.22513,1.07369 0.26733,1.3281 0.097,0.58479 0.0924,1.26189 0.26734,1.82854 0.0727,0.23562 0.18041,0.43068 0.45984,0.38496 0.24699,-0.0404 0.33912,-0.70494 0.36356,-0.85653 0.15058,-0.93346 0.40257,-2.65113 -0.23524,-3.41649 -0.44995,-0.53991 -0.52189,-0.40897 -0.86619,0.14436 z"
         id="path9981" />
      <path
         style="fill:#4abfa1;fill-opacity:1;stroke:#478978;stroke-width:0;stroke-linecap:round;stroke-dasharray:none;stroke-opacity:1"
         d="m 333.83351,156.57 c 0.38396,-0.49083 0.82714,-0.87605 1.46502,-0.9239 0.0604,-0.005 0.13557,-0.0392 0.1818,0 0.34718,0.29407 0.42957,1.23689 0.49191,1.67456 0.13946,0.97897 0.81875,1.42671 1.73236,1.6072 0.93239,0.18419 1.66047,-0.10515 2.48094,-0.51007 0.5665,-0.27959 1.1933,-0.51327 1.78584,-0.73142 0.72236,-0.26594 1.5476,-0.26803 2.30983,-0.2406 0.23604,0.008 1.06527,0.17997 1.12282,0.49082 0.0677,0.36546 -0.95232,0.56002 -1.21907,0.7218 -0.47921,0.29065 -0.89141,0.72291 -1.24047,1.15487 -0.25099,0.31059 -0.53634,0.59956 -0.76994,0.92389 -0.18177,0.2524 -0.25154,0.53622 -0.40635,0.79878 -0.28096,0.47654 -0.6237,0.91932 -0.88757,1.40509 -0.35309,0.64998 -0.63257,1.34015 -0.98383,1.99215 -0.40412,0.75012 -0.90992,1.44193 -1.41155,2.12688 -0.1374,0.18761 -0.23635,0.39563 -0.40637,0.55819 -0.51938,0.49665 -2.02298,1.22882 -2.74826,1.43396 -0.22833,0.0646 -0.45857,0.18335 -0.69508,0.21173 -0.66609,0.0799 -1.35866,-0.38168 -1.73239,-0.89502 -0.44556,-0.61204 -0.36967,-1.46809 -0.45982,-2.18463 -0.0891,-0.7086 -0.22275,-1.31177 -0.13901,-2.04027 0.0803,-0.69846 0.46098,-1.62484 0.63093,-2.33861 0.0391,-0.16449 0.027,-0.33359 0.0535,-0.50044 0.1075,-0.67726 0.28911,-1.38415 0.45982,-2.04989 0.0787,-0.307 0.63481,-2.00979 0.58814,-2.24237 -0.0319,-0.1592 -0.13544,-0.29513 -0.20317,-0.4427 z"
         id="path9989" />
      <path
         style="fill:#4abfa1;fill-opacity:1;stroke:#478978;stroke-width:0;stroke-linecap:round;stroke-dasharray:none;stroke-opacity:1"
         d="m 359.81908,159.74589 c 0.26845,0.12543 0.55364,-0.13605 0.82341,-0.077 0.96089,0.21034 0.72231,1.76281 1.43296,2.20387 1.60623,0.99694 2.61673,-2.12143 3.56097,-1.83816 0.25503,0.0765 0.56272,0.5263 0.69509,0.71216 0.70601,0.9912 0.20989,2.41809 0.0428,3.50311 -0.1693,1.09924 -0.30101,2.21774 -0.60954,3.29137 -0.16262,0.56591 -0.38511,1.10915 -0.57746,1.66494 -0.22227,0.64226 -0.42505,1.59513 -0.95173,2.06914 -0.35713,0.32139 -1.33519,0.0488 -1.70029,-0.10587 -0.33518,-0.14194 -0.60214,-0.4637 -0.84482,-0.72179 -0.5349,-0.56894 -1.19726,-1.14354 -1.39017,-1.9344 -0.33864,-1.38847 0.0739,-2.52903 0.18179,-3.86881 0.0746,-0.9264 0.0249,-1.85261 -0.0855,-2.77169 -0.0396,-0.3292 -0.14619,-1.39792 -0.22458,-1.61681 -0.0697,-0.19464 -0.23524,-0.34005 -0.35288,-0.51007 z"
         id="path9991" />
      <path
         style="fill:#4abfa1;fill-opacity:1;stroke:#478978;stroke-width:0;stroke-linecap:round;stroke-dasharray:none;stroke-opacity:1"
         d="m 343.59682,134.04688 c 0.0677,-0.26199 0.11043,-0.53176 0.20317,-0.78598 0.27503,-0.75404 2.55066,-3.0377 3.17601,-3.6667 0.62973,-0.63341 1.33482,-1.17923 2.01041,-1.76118 0.32239,-0.27769 0.64841,-0.6168 1.01589,-0.83728 0.30295,-0.18175 0.71533,-0.26692 1.05868,-0.32721 0.98515,-0.17299 2.33868,0.0975 3.18672,0.6063 0.3483,0.20897 0.65807,0.50362 0.96242,0.76992 0.33811,0.29584 0.60486,0.6629 0.95173,0.95277 0.5447,0.45519 1.16404,0.77156 1.59335,1.35696 0.5483,0.74763 0.88834,1.56713 1.3688,2.34824 0.65899,1.07135 1.03983,2.52503 1.08005,3.79181 0.005,0.15076 0.10139,0.68478 -0.0642,0.76992 -0.3593,0.18478 -0.78438,-0.75226 -0.94104,-0.93352 -0.25416,-0.2941 -0.56584,-0.53636 -0.8341,-0.81803 -0.49631,-0.52109 -1.11789,-0.88914 -1.64682,-1.37622 -0.70509,-0.6493 -1.40907,-1.42355 -2.21359,-1.95365 -0.77234,-0.50891 -2.50248,-0.99774 -3.44336,-1.03938 -0.57055,-0.0253 -1.29691,-0.0804 -1.85,0.0962 -1.12273,0.35853 -2.19755,1.39601 -3.13324,2.08839 -0.30785,0.22779 -0.67228,0.36311 -0.99452,0.56781 -0.45617,0.2898 -0.87318,0.5854 -1.36877,0.80841 -0.16687,0.0751 -0.3964,0.17194 -0.41706,0.13473 -0.0924,-0.16631 -0.0428,-0.61335 -0.0428,-0.79234"
         id="path9993" />
      <path
         style="fill:#4abfa1;fill-opacity:1;stroke:#478978;stroke-width:0;stroke-linecap:round;stroke-dasharray:none;stroke-opacity:1"
         d="m 222.43311,162.17907 c 0.51087,0.11288 1.02194,0.22485 1.53261,0.33864 0.45254,0.10083 0.889,0.20682 1.31532,0.39458 0.52532,0.23135 1.02936,0.51724 1.59336,0.65442 0.40356,0.0982 1.27342,0.10626 1.61474,0.25985 0.23226,0.10451 -0.49875,0.4406 -0.55607,0.46194 -0.51612,0.19221 -1.01932,0.24022 -1.55058,0.34647 -0.40481,0.081 -0.79762,0.24392 -1.187,0.37533 -0.63801,0.21532 0.33975,-0.12721 -0.71647,0.25022 -0.0819,0.0292 -0.32118,0.13016 -0.24596,0.0866 0.41878,-0.24242 0.85321,-0.45673 1.27982,-0.6851"
         id="path9995" />
      <path
         style="fill:#4abfa1;fill-opacity:1;stroke:#478978;stroke-width:0;stroke-linecap:round;stroke-dasharray:none;stroke-opacity:1"
         d="m 258.12396,152.83274 c -0.0814,1.71437 -0.46882,3.37797 -0.46882,5.1003 0,0.35365 -0.0487,1.18744 0.28734,1.45629 1.1652,0.93213 1.73641,-1.33804 2.32896,-1.89182 0.48121,-0.44973 1.10406,-0.62607 1.75428,-0.62607 1.72177,0 3.33203,0.22433 4.9755,0.76217 0.24966,0.0817 1.50647,0.85147 1.66354,0.46275 0.40508,-1.00254 -0.60978,-2.16135 -0.99813,-3.03509 -0.29197,-0.65691 -0.71105,-1.28441 -1.04349,-1.93265 -0.24003,-0.46805 -0.38297,-0.99785 -0.66541,-1.44269 -0.63476,-0.9997 -1.73504,-1.97102 -2.73729,-2.57234 -0.72209,-0.43324 -1.52704,-0.59326 -2.3592,-0.61246 -2.53252,-0.0584 -3.39342,2.15619 -2.73728,4.33161 z"
         id="path9997" />
      <path
         style="fill:#4abfa1;fill-opacity:1;stroke:#478978;stroke-width:0;stroke-linecap:round;stroke-dasharray:none;stroke-opacity:1"
         d="m 277.67196,162.78382 c 0.13857,-0.0318 0.27935,-0.0551 0.41569,-0.0953 0.16452,-0.0486 0.35475,-0.21447 0.5026,-0.29834 0.35642,-0.20223 0.7587,-0.32561 1.13353,-0.49082 0.27559,-0.12149 0.55851,-0.22207 0.82876,-0.35609 0.63161,-0.31322 1.18147,-0.7836 1.67888,-1.27516 0.0389,-0.0384 0.87231,-0.8256 0.89292,-0.81322 0.0606,0.0364 -0.1198,0.49657 -0.12295,0.50525 -0.194,0.53169 -0.58156,1.03846 -0.91967,1.48689 -0.27117,0.35965 -0.56988,0.69755 -0.83944,1.05863 -0.18336,0.24561 -0.35362,0.64303 -0.63627,0.78435 -0.61201,0.30599 -1.61198,0.40969 -2.21359,0.0577 -0.25939,-0.15173 -0.49093,-0.37171 -0.72046,-0.5639 z"
         id="path10001" />
      <path
         style="fill:#4abfa1;fill-opacity:1;stroke:#478978;stroke-width:0;stroke-linecap:round;stroke-dasharray:none;stroke-opacity:1"
         d="m 222.43311,162.17907 c -0.0498,0.003 -0.15204,-0.0415 -0.14928,0.008 0.003,0.0498 0.1013,-0.0218 0.14928,-0.008 0.0772,0.0217 0.13997,0.0789 0.21368,0.11038 0.18286,0.0782 0.39921,0.11614 0.59358,0.15651 0.51581,0.10713 1.0609,0.0965 1.58414,0.14631 0.20254,0.0193 0.40152,0.0713 0.60493,0.0817 0.54353,0.0275 1.09248,-0.0457 1.62951,-0.1191 0.47001,-0.0643 0.93924,-0.13137 1.40645,-0.21436 0.55768,-0.0991 1.09926,-0.27236 1.63708,-0.44573 0.70774,-0.22816 1.41328,-0.42226 2.0832,-0.75197 0.16937,-0.0834 0.0822,-0.043 0.28734,-0.1327 0.18844,-0.0824 0.36755,-0.18794 0.55956,-0.262 0.17446,-0.0673 0.37321,-0.0904 0.55199,-0.14971 0.0397,-0.0132 0.22123,-0.1326 0.25709,-0.068 0.1315,0.23669 -0.15913,0.45439 -0.29868,0.61586 -0.29111,0.33685 -0.59885,0.66821 -0.94897,0.94592 -0.26016,0.20635 -0.52244,0.42173 -0.79396,0.61246 -0.16568,0.11637 -0.25063,0.14942 -0.44614,0.25859 -0.95676,0.53427 -1.94387,0.99985 -2.99437,1.3202 -0.31253,0.0953 -0.62874,0.17013 -0.94898,0.23477 -0.89426,0.18052 -1.49064,0.16442 -2.23822,-0.38108 -0.38432,-0.28044 -0.70946,-0.61565 -1.0813,-0.91189 -0.25416,-0.20249 -0.57737,-0.30279 -0.83555,-0.50698 -0.0797,-0.063 -0.15313,-0.13413 -0.22306,-0.20756 -0.0256,-0.0269 -0.0614,-0.11074 -0.0794,-0.0783 -0.0143,0.0258 -0.006,0.11635 0.004,0.0885 0.0242,-0.0696 0.0317,-0.14385 0.0476,-0.21578"
         id="path10003" />
      <path
         style="fill:#4abfa1;fill-opacity:1;stroke:#478978;stroke-width:0;stroke-linecap:round;stroke-dasharray:none;stroke-opacity:1"
         d="m 91.070215,129.91829 c 0.16924,-0.18854 0.32787,-0.38717 0.50774,-0.5656 0.12869,-0.12767 0.35116,-0.20348 0.5026,-0.30797 0.25797,-0.17799 0.50215,-0.40617 0.72717,-0.62555 0.36048,-0.35146 0.63258,-0.7832 1.0052,-1.12599 0.46749,-0.43008 0.98834,-0.79283 1.45434,-1.23187 0.27888,-0.26275 0.57137,-0.51109 0.84479,-0.77953 0.33242,-0.32636 0.5888,-0.75584 0.86619,-1.126 0.66528,-0.88777 1.335,-1.7782 1.90347,-2.73319 0.67095,-1.12716 1.330105,-2.4421 2.384685,-3.2625 0.50477,-0.39268 1.18142,-0.93608 1.75376,-1.22224 0.40093,-0.20045 0.91507,-0.28906 1.33671,-0.45232 0.12767,-0.0494 0.5569,-0.25991 0.80202,-0.27909 0.10429,-0.008 0.37962,0.0301 0.31012,-0.0481 -0.67114,-0.755 -2.26621,-0.71932 -3.16532,-0.76029 -1.51188,-0.0689 -2.720725,-0.0819 -4.106365,0.63518 -0.46835,0.24236 -0.95615,0.50056 -1.3581,0.8469 -1.07326,0.92479 -1.3499,1.89355 -1.92485,3.13739 -0.29485,0.63785 -0.62987,1.25576 -0.91966,1.89591 -0.41252,0.91126 -0.67983,1.85433 -1.0159,2.79093 -0.18742,0.52236 -0.4292,1.02439 -0.60953,1.54945 -0.12047,0.35075 -0.23516,0.70356 -0.3422,1.05863 -0.26204,0.8692 -0.13464,1.83253 -0.48121,2.68507 -0.104,0.25583 -0.17689,0.62555 -0.47566,0.62555"
         id="path10005" />
      <path
         style="fill:#4abfa1;fill-opacity:1;stroke:#478978;stroke-width:0;stroke-linecap:round;stroke-dasharray:none;stroke-opacity:1"
         d="m 96.978245,124.15578 c -0.0392,-0.0289 -0.0888,-0.12582 -0.11763,-0.0866 -0.0289,0.0392 0.0801,0.11762 0.11763,0.0866 0.21147,-0.17472 0.35111,-0.42172 0.53468,-0.62555 0.71121,-0.78969 -0.0544,0.12421 0.48122,-0.51007 0.64424,-0.76288 1.3014,-1.5189 2.074565,-2.15575 0.43194,-0.35579 0.93245,-0.60348 1.41157,-0.8854 1.70155,-1.00127 3.24719,-1.59169 5.25058,-1.51096 0.65058,0.0262 1.15555,0.22678 1.72167,0.54857 0.30938,0.17584 0.96808,0.86968 1.37948,0.67367 0.42203,-0.20108 0.3503,-1.24945 0.1818,-1.5687 -0.81856,-1.55088 -2.26702,-2.06323 -3.90319,-2.34823 -1.25261,-0.21819 -3.26415,-0.3449 -4.46994,-0.0385 -0.77935,0.19803 -1.36626,0.79689 -1.956945,1.29922 -1.10018,0.93562 -1.81388,2.04347 -2.5237,3.29138 -0.22442,0.39456 -0.47345,0.78145 -0.56676,1.23186 -0.13466,0.64999 -0.16452,1.37406 -0.21387,2.04026 -0.0164,0.22178 -0.0505,0.44205 -0.0642,0.66405 -0.003,0.0549 -0.0731,0.18237 -0.0214,0.16361 0.23047,-0.0836 0.45626,-0.17965 0.68439,-0.26947"
         id="path10007" />
      <path
         style="fill:#4abfa1;fill-opacity:1;stroke:#478978;stroke-width:0;stroke-linecap:round;stroke-dasharray:none;stroke-opacity:1"
         d="m 153.08887,112.9866 c 0.78722,-0.006 0.69335,0.34346 0.89721,0.92721 0.21549,0.61706 0.57466,1.11284 0.83411,1.70343 0.13217,0.30088 0.23942,0.66245 0.54537,0.82766 0.0398,0.0215 0.47885,0.29004 0.49191,0.26946 0.1461,-0.23009 0.1331,-0.64299 0.13902,-0.8854 0.0259,-1.06281 -0.2567,-1.64652 -0.66301,-2.60807 -0.14308,-0.33861 -0.47236,-1.33341 -0.82341,-1.55908 -0.3846,-0.24723 -0.86401,1.11425 -1.03728,1.23186 -0.10894,0.0739 -0.25595,0.0619 -0.38392,0.0929 z"
         id="path10009" />
      <g
         aria-label="M "
         transform="matrix(0.3389226,0,0,0.42830348,33.316085,-107.96348)"
         id="text5668"
         style="font-weight:bold;font-size:226.667px;font-family:'Microsoft Tai Le';-inkscape-font-specification:'Microsoft Tai Le Bold';white-space:pre;shape-inside:url(#rect5670);display:inline;fill:none;stroke:#478978;stroke-width:6.56166;stroke-linecap:round">
        <path
           d="m 398.35717,634.70437 q -4.42709,-13.6133 -9.96095,-32.98182 l -4.8698,-16.60159 -4.75912,-16.60159 -2.21355,-8.07944 -2.32422,-8.07943 q -2.76693,-9.62893 -5.09116,-16.26956 -6.41928,-18.37242 -15.27346,-29.99353 -2.10286,-2.76694 -4.75912,-5.31251 -3.09896,-3.09897 -6.3086,-4.98048 -8.07944,-4.98048 -14.16669,-1.4388 -9.96095,5.86589 -18.04039,20.69664 -2.87761,5.31251 -6.08725,13.05992 -0.99609,2.32422 -2.65625,6.41928 l -1.32813,3.09896 -1.21745,2.98829 q -0.66406,1.4388 -2.4349,5.97657 -0.88542,2.32422 -1.4388,3.8737 -0.88542,2.21355 -1.66016,4.09506 -4.42709,10.84637 -8.63283,18.04039 -12.50653,21.9141 -25.56644,17.92972 -9.18621,-2.87761 -13.50263,-17.37633 -1.32812,-4.64845 -2.65625,-12.28518 l -0.55339,-2.8776 -0.44271,-2.87761 q -0.55338,-3.09897 -0.99609,-4.98048 -1.54948,-7.19402 -3.431,-12.61721 -2.32422,-7.19402 -5.42318,-12.39585 -7.74741,-13.39194 -20.14326,-15.49481 -15.27346,-2.54558 -26.34119,16.26955 -8.96485,15.16279 -13.72398,23.68493 -7.63673,13.39195 -13.17059,24.45968 -14.05601,27.89066 -20.36461,51.13289 -2.10287,7.63673 -1.32813,14.27736 0.77474,8.7435 6.3086,12.39585 9.18622,6.08725 16.82295,-3.8737 2.76693,-3.54167 5.3125,-9.07554 0.88542,-2.21354 1.88152,-4.64844 0.66406,-1.77084 1.32812,-3.8737 l 2.76694,-8.19012 2.76693,-8.19012 q 3.20964,-9.29689 6.3086,-15.93752 8.19012,-17.37633 20.03258,-27.44796 12.50653,-10.62501 20.25394,12.06382 1.32813,4.09506 2.76693,9.51825 0.88542,3.8737 2.10287,9.51824 2.54557,12.06382 3.20964,14.05601 4.8698,14.38804 13.17059,20.03258 9.7396,6.86199 21.13936,-1.77083 9.51824,-7.19403 18.37242,-19.4792 5.97657,-8.41147 13.94533,-23.02087 0.88542,-1.54948 3.20964,-6.3086 l 0.9961,-1.99219 1.10677,-2.10287 q 1.21745,-2.4349 2.32422,-4.53777 6.19793,-11.73179 11.39976,-18.59377 15.93752,-20.80733 27.11593,-2.21355 5.42318,8.85418 9.29688,24.45967 l 1.54949,6.52996 1.4388,6.52996 q 1.77084,8.07944 2.98829,12.6172 l 15.60549,56.00269 0.66406,2.10287 0.55339,2.21355 q 0.77474,2.76693 1.4388,4.75912 1.77084,5.86589 3.76303,9.85027 5.64454,10.95705 14.83075,10.95705 16.49091,0 13.83466,-22.02477 -0.88542,-7.41538 -4.09506,-17.59769 -0.9961,-3.32031 -2.4349,-7.63673 l -0.55339,-1.66015 -0.55338,-1.54949 q -0.55339,-1.66015 -0.88542,-2.54557 z"
           style="font-family:Simpsonfont;-inkscape-font-specification:'Simpsonfont Bold'"
           id="path11048" />
      </g>
      <g
         aria-label="rówka"
         transform="matrix(0.26458333,0,0,0.26458333,140.69303,-10.826754)"
         id="text5674"
         style="font-weight:bold;font-size:226.667px;font-family:'Microsoft Tai Le';-inkscape-font-specification:'Microsoft Tai Le Bold';white-space:pre;shape-inside:url(#rect5676);display:inline;fill:none;stroke:#478978;stroke-width:9.44882;stroke-linecap:round">
        <path
           d="m 162.50395,583.12877 q 0.77474,-9.07553 6.97267,-18.4831 5.97657,-9.07553 14.38804,-14.72007 8.7435,-6.08725 16.60159,-5.64454 8.7435,0.33203 13.94533,8.85418 5.97657,9.07553 1.77084,19.14716 -3.431,8.30079 -12.83857,15.49482 -1.54948,1.21745 -3.32031,2.4349 -2.10287,1.54948 -4.31642,2.98828 -5.75521,3.54167 -10.73569,5.75522 -13.94533,5.86589 -18.92581,-1.21745 -4.42709,-6.08725 -3.54167,-14.6094 z m 80.68371,74.9285 q -1.88151,-1.99219 -4.75912,-3.98438 -1.99219,-1.43881 -5.20183,-3.32032 -4.53777,-2.65625 -11.06772,-7.3047 l -5.42319,-3.76302 -5.42318,-3.87371 -2.87761,-1.77083 -2.87761,-1.88152 q -3.431,-2.21354 -4.98048,-3.8737 -4.53776,-4.75912 0.44271,-10.40366 2.76693,-3.20964 9.40757,-6.19793 l 2.65625,-1.21745 2.65626,-1.10677 q 2.8776,-1.4388 4.8698,-2.87761 17.487,-12.61721 22.3568,-28.66541 2.54558,-8.63282 0.88542,-18.92581 -1.54948,-9.96095 -6.75131,-18.70445 -5.42319,-9.18621 -13.28127,-14.38804 -8.52215,-5.75522 -18.26175,-5.75522 -33.20318,0 -50.02612,26.34118 -14.05601,22.13545 -14.05601,56.99879 v 46.48444 q 0,2.54558 -0.33203,8.41147 l -0.33203,4.53777 -0.11068,4.64845 q -0.11068,11.1784 3.54167,16.93361 3.76303,6.08725 8.19012,6.30861 3.65235,0.22135 7.19402,-3.87371 3.20964,-3.65235 5.09115,-9.29688 1.88152,-5.53387 1.54949,-9.7396 l -0.11068,-1.21745 -0.11068,-1.21745 -0.22135,-2.76693 q -0.22136,-3.32032 -0.33204,-5.97658 -0.22135,-7.30469 0.77475,-11.62111 2.76693,-11.95314 15.16278,-1.99219 6.86199,5.53387 15.71617,13.28127 l 7.74741,6.75132 7.63673,6.86198 2.4349,2.21355 2.54557,2.32422 q 3.09897,2.65626 5.42319,4.31641 6.41928,4.53777 12.39585,4.42709 6.64063,-0.33203 9.96095,-5.3125 3.09896,-4.75912 2.10287,-11.51044 -0.66406,-4.42709 -4.20574,-8.30079 z"
           style="font-family:Simpsonfont;-inkscape-font-specification:'Simpsonfont Bold'"
           id="path11051" />
        <path
           d="m 323.42867,530.55708 q 21.69274,0 40.06517,24.01696 18.4831,24.01696 18.4831,55.33863 0.22135,26.00915 -31.32166,44.60293 -27.77999,16.0482 -56.66676,16.38023 -18.15106,0 -27.55863,-20.58597 -6.52996,-15.16278 -6.52996,-35.63807 0,-31.32166 14.83075,-55.4493 17.81904,-28.44406 48.69799,-28.66541 z m -31.1003,83.00793 q -0.22136,1.10678 -0.44271,1.54949 -0.11068,0.33203 -2.76693,4.31641 -2.65626,3.98438 -2.65626,7.19402 0,5.20183 5.8659,11.1784 l 8.30079,4.09506 q 3.54167,1.66016 11.1784,1.88151 l 9.40757,-0.77474 q 6.97266,-0.55338 20.36461,-15.27346 13.39195,-14.72007 13.6133,-33.5352 0,-14.16669 -8.19011,-26.11983 -9.7396,-13.61331 -24.349,-13.61331 l -3.8737,0.22136 q -12.83856,0 -19.70055,18.04039 -6.08725,16.82294 -6.75131,40.8399 z m 56.44539,-136.79708 1.43881,-1.4388 0.88542,-0.88542 0.99609,-0.99609 q 1.4388,-1.43881 2.4349,-2.32423 2.98829,-2.76693 5.31251,-4.31641 6.97266,-4.42709 11.06772,0.22136 7.63673,8.52214 -0.55338,17.70836 -2.87761,3.20964 -8.07944,6.97266 l -2.21355,1.54948 -1.99219,1.43881 q -2.54557,1.66016 -3.65235,2.54558 l -3.09896,2.32422 -3.32032,2.32422 q -3.65235,2.76693 -6.75131,4.75912 -8.07944,5.09116 -14.38804,7.19402 -6.64064,2.21355 -7.85809,-1.77083 -1.10677,-3.76303 2.98829,-8.74351 4.98047,-5.86589 13.05991,-13.6133 l 6.86199,-6.52996 z"
           style="font-family:Simpsonfont;-inkscape-font-specification:'Simpsonfont Bold'"
           id="path11053" />
        <path
           d="m 531.72325,537.30839 q -14.49872,2.21354 -12.94924,23.02087 0.33203,3.76302 1.10678,8.63282 0.55338,3.09897 1.66015,8.52215 1.99219,10.51434 2.10287,13.94533 0.11068,5.8659 -1.66016,15.49482 -2.10286,11.28908 -5.64454,20.14326 -9.85027,24.23832 -24.68102,16.71226 -3.20964,-1.66015 -8.3008,-9.73959 -0.99609,-1.54949 -2.21354,-3.76303 l -2.32422,-3.8737 q -3.09897,-5.09116 -4.8698,-7.85809 -5.8659,-9.18621 -10.51434,-12.61721 -6.19793,-4.42709 -11.73179,-0.99609 -5.75522,3.54167 -7.19402,14.16669 -0.55339,3.65235 -0.66407,9.07553 v 2.10287 l -0.11067,2.10287 q 0,2.4349 -0.11068,3.76302 -0.33203,8.3008 -5.53386,16.38024 -4.09506,6.08725 -5.75522,5.42318 -1.21745,-0.44271 -4.09506,-7.19402 -4.64844,-10.73569 -4.42709,-24.01696 0.11068,-4.8698 0.88542,-11.95315 l 0.66406,-6.08724 0.66407,-6.30861 0.11067,-0.77474 0.11068,-0.99609 0.22136,-2.10287 q 0.22135,-2.65626 0.33203,-4.8698 0.22135,-6.41928 -0.44271,-10.62502 -2.10287,-12.39585 -12.39585,-8.07944 -9.07554,3.76303 -12.28518,22.79952 -1.10677,6.52996 -1.66016,15.49481 -0.11067,2.76693 -0.22135,6.86199 l -0.11068,1.54948 v 1.43881 q -0.11068,1.54948 -0.11068,2.54557 -1.66015,30.21489 12.72789,50.24748 7.74741,10.73569 19.47919,10.40366 11.17841,-0.33203 20.25394,-10.18231 2.54558,-2.87761 4.53777,-7.96876 l 0.77474,-1.99219 0.77474,-1.99219 q 0.77474,-2.21355 1.32813,-3.431 1.77083,-3.54167 4.20573,-4.31641 3.09897,-0.77474 8.63283,1.99219 l 4.64844,2.4349 4.75912,2.54558 q 5.75522,2.98828 9.96096,4.53776 11.62111,4.42709 21.25003,2.10287 14.05601,-3.54167 28.44405,-24.34899 13.6133,-19.58988 20.47529,-44.16023 7.19402,-26.00915 2.65626,-43.16412 -5.31251,-19.70055 -25.01306,-21.13936 -4.31641,-0.33203 -7.74741,0.11068 z"
           style="font-family:Simpsonfont;-inkscape-font-specification:'Simpsonfont Bold'"
           id="path11055" />
        <path
           d="m 706.704,647.87496 q -2.65625,-3.76302 -7.52605,-8.07944 -1.66016,-1.54948 -4.31642,-3.65235 l -2.10286,-1.77083 -2.10287,-1.66016 q -10.40366,-8.63283 -13.50263,-13.6133 -4.64844,-7.41538 -3.43099,-18.4831 1.32813,-11.84247 11.62111,-22.35681 1.77084,-1.88151 4.53777,-4.42709 l 4.64844,-4.42709 q 5.8659,-5.53386 9.18621,-9.7396 5.31251,-6.86199 5.97658,-15.82684 0.66406,-10.29299 -6.41929,-14.49872 -8.30079,-4.98048 -18.9258,3.09896 -3.98439,2.98829 -8.07944,7.74741 -3.20964,3.65235 -5.97658,7.74741 -0.77474,1.10677 -1.54948,2.32422 l -0.66406,0.88542 -0.55339,0.88541 q -1.4388,2.21355 -2.87761,4.20574 -3.54167,4.8698 -6.41928,8.63282 -16.82294,21.36071 -22.3568,16.04821 -5.42319,-5.31251 -4.53777,-15.38414 1.43881,-7.41538 1.99219,-12.94924 1.43881,-15.93752 -4.20573,-22.68884 -3.87371,-4.75912 -10.07163,-6.19792 -17.26565,-3.87371 -27.00525,20.80732 -3.54167,8.85418 -5.8659,20.80732 -0.88541,4.75913 -1.54948,9.62892 -0.55338,3.98439 -0.88541,7.85809 -4.31642,44.60293 12.17449,79.35559 4.98048,10.51434 10.7357,15.49481 8.19011,6.97267 17.15497,2.32422 6.3086,-3.32031 7.63673,-10.84637 0.88542,-5.3125 -0.55339,-15.38413 l -0.66406,-4.09506 -0.66406,-3.98438 q -0.66407,-4.75912 -0.77474,-7.85809 -0.33204,-8.52215 3.09896,-12.83856 5.20183,-6.52996 12.06382,-2.54558 2.54558,1.43881 5.42318,4.42709 1.10678,1.10678 2.32423,2.54558 0.88541,0.9961 1.99219,2.4349 2.98828,3.8737 8.19011,12.61721 l 1.99219,3.43099 2.10287,3.431 q 2.4349,3.98438 4.42709,6.86199 10.95705,15.82684 24.12764,17.15497 6.86199,0.66406 10.40366,-2.54558 3.431,-2.98828 4.98048,-10.40366 1.66016,-7.41537 -3.20964,-14.49872 z"
           style="font-family:Simpsonfont;-inkscape-font-specification:'Simpsonfont Bold'"
           id="path11057" />
        <path
           d="m 807.30964,614.67179 q -3.43099,0.66406 -3.8737,0.77474 -0.33203,0 1.21745,-0.33203 1.66016,-0.33204 2.54557,-0.55339 1.21745,-0.22135 0.11068,0.11068 -17.59768,3.43099 -23.02087,-3.98438 -4.98047,-6.75132 -0.99609,-24.12764 0.22135,-0.88542 0.77474,-3.87371 0.22135,-1.54948 0.44271,-2.54557 l 0.55338,-2.87761 q 1.54949,-7.3047 3.431,-12.39586 5.42318,-15.27346 14.27736,-13.05991 4.64845,1.21745 7.3047,8.85418 0.77474,2.54558 1.66016,6.41928 l 0.33203,1.54948 0.33204,1.43881 q 0.33203,1.66015 0.66406,2.65625 0.55339,1.99219 1.77084,5.97657 l 0.99609,3.09896 0.9961,3.09897 q 2.10286,7.52605 2.4349,12.39585 0.99609,13.50262 -11.95315,17.37633 z M 844.27584,602.94 q -1.54948,-10.73569 -3.43099,-19.81123 -2.65626,-12.50653 -5.97657,-22.46748 -8.96486,-26.56254 -22.68884,-35.08469 -21.13935,-13.17059 -39.06907,12.72788 -6.3086,9.18622 -12.28517,23.24223 -2.10287,4.98047 -4.42709,11.1784 -0.77474,2.10287 -1.77084,4.8698 l -0.77474,2.21354 -0.77474,1.99219 q -2.76693,7.63673 -7.19402,19.14717 l -7.41538,19.36852 q -8.7435,23.13154 -13.39194,38.84771 -3.20964,10.51434 -0.11068,16.38023 3.54167,6.52996 13.72398,2.32423 9.7396,-4.09506 15.16278,-15.6055 l 2.10287,-4.86979 2.21354,-4.8698 q 2.76693,-5.64454 5.97657,-9.18622 4.09506,-4.53776 19.92191,-5.53386 5.42318,-0.22135 12.50653,-0.11067 2.32422,0 5.31251,0.11067 h 1.21745 0.99609 q 1.21745,0.11068 1.88152,0.11068 13.50262,0.33203 18.70445,3.98438 6.86199,4.8698 5.64454,17.59768 -0.11068,1.43881 -0.55339,4.20574 l -0.33203,2.4349 -0.33203,2.32422 q -0.77474,6.08725 -0.44271,9.7396 0.88542,11.06772 11.51044,11.39976 17.487,-0.55339 13.39194,-37.74095 -1.32812,-11.51043 -4.98047,-28.77608 -0.55339,-2.54558 -1.43881,-6.3086 l -0.66406,-2.87761 -0.55339,-2.76693 q -1.21745,-5.75522 -1.66016,-8.19012 z"
           style="font-family:Simpsonfont;-inkscape-font-specification:'Simpsonfont Bold'"
           id="path11059" />
      </g>
    </g>
  </g>
</svg>
