<svg width="983" height="1510" viewBox="0 0 983 1510" fill="none" xmlns="http://www.w3.org/2000/svg">
<ellipse cx="665.834" cy="1533.34" rx="290.859" ry="294.913" fill="#5B3B2B"/>
<path d="M427.132 1419.17C428.445 1420.59 430.66 1420.68 432.078 1419.37C433.497 1418.05 433.583 1415.84 432.27 1414.42L427.132 1419.17ZM506.922 1173.21C483.434 1178.82 447.551 1190.05 416.145 1205.52C400.444 1213.26 385.734 1222.12 374.232 1231.95C362.773 1241.76 354.179 1252.81 351.3 1264.99L358.112 1266.6C360.503 1256.48 367.845 1246.63 378.783 1237.27C389.678 1227.95 403.826 1219.39 419.238 1211.8C450.058 1196.62 485.421 1185.55 508.55 1180.01L506.922 1173.21ZM351.3 1264.99C348.464 1276.99 350.167 1290.7 354.5 1304.76C358.845 1318.87 365.928 1333.63 374.204 1347.87C390.754 1376.35 412.305 1403.15 427.132 1419.17L432.27 1414.42C417.707 1398.68 396.491 1372.29 380.256 1344.35C372.139 1330.38 365.325 1316.13 361.189 1302.7C357.041 1289.24 355.678 1276.9 358.112 1266.6L351.3 1264.99Z" fill="#5B3B2B"/>
<ellipse cx="665.834" cy="1184.72" rx="195.595" ry="197.622" fill="#E2D2AA"/>
<ellipse cx="523.951" cy="787.447" rx="333.424" ry="331.397" fill="#985F41"/>
<ellipse cx="619.215" cy="810.756" rx="126.681" ry="139.855" fill="white"/>
<ellipse cx="330.383" cy="822.918" rx="77.0219" ry="103.371" fill="white"/>
<ellipse cx="341.531" cy="823.931" rx="49.6588" ry="57.7664" fill="#5B3B2B"/>
<ellipse cx="626.309" cy="814.81" rx="74.995" ry="83.1025" fill="#5B3B2B"/>
<path d="M411.459 987.096C455.24 1028.44 522.262 1004.32 550.301 987.096" stroke="#5B3B2B" stroke-width="8" stroke-linecap="round"/>
<ellipse cx="357.746" cy="783.393" rx="25.3361" ry="27.363" fill="white"/>
<ellipse cx="357.746" cy="783.393" rx="25.3361" ry="27.363" fill="white"/>
<ellipse cx="357.746" cy="783.393" rx="25.3361" ry="27.363" fill="white"/>
<ellipse cx="357.746" cy="783.393" rx="25.3361" ry="27.363" fill="white"/>
<ellipse cx="657.726" cy="759.071" rx="25.3361" ry="27.363" fill="white"/>
<ellipse cx="657.726" cy="759.071" rx="25.3361" ry="27.363" fill="white"/>
<ellipse cx="657.726" cy="759.071" rx="25.3361" ry="27.363" fill="white"/>
<ellipse cx="657.726" cy="759.071" rx="25.3361" ry="27.363" fill="white"/>
<path d="M801.635 1105.67C860.078 1142.15 977.367 1240.25 978.988 1340.79C980.61 1441.32 811.432 1489.43 726.641 1500.91" stroke="#5B3B2B" stroke-width="7" stroke-linecap="round"/>
<path d="M584.758 546.247C558.071 472.266 520.708 308.29 584.758 244.24C664.82 164.178 816.837 131.748 751.977 73.9816" stroke="#5B3B2B" stroke-width="8" stroke-linecap="round"/>
<path d="M375.988 523.951C404.703 488.819 436.795 403.554 335.45 343.558C234.106 283.562 116.884 338.829 70.9412 373.961" stroke="#5B3B2B" stroke-width="8" stroke-linecap="round"/>
<ellipse cx="54.7261" cy="406.392" rx="54.7261" ry="49.6588" fill="#E2D2AA"/>
<ellipse cx="715.493" cy="52.6992" rx="54.7261" ry="52.6992" fill="#E2D2AA"/>
</svg>
