<svg width="875" height="414" viewBox="0 0 875 414" fill="none" xmlns="http://www.w3.org/2000/svg">
<path d="M874.5 201.5C874.5 316.928 768.901 413.5 527 413.5C285.099 413.5 0.5 396.428 0.5 281C0.5 165.572 50.0993 0 292 0C533.901 0 874.5 86.0725 874.5 201.5Z" fill="#FEFAF0"/>
<path d="M314 119C314 99.1146 322.571 86.6862 331.143 81.7148C338 77.7378 349 81.8121 354 82.6407C367.714 92.5835 373.286 98.2862 374 101.6" stroke="#5B3B2B" stroke-width="5"/>
<path d="M160 123C160 103.115 151.429 90.6862 142.857 85.7148C136 81.7378 125 85.8121 120 86.6407C106.286 96.5835 100.714 102.286 100 105.6" stroke="#5B3B2B" stroke-width="5"/>
<path d="M125.583 315.682C126.544 296.429 130.149 253.864 136.398 187.987L138.922 162.239L140.724 145.886C140.964 143.334 141.205 141.478 141.445 140.318V138.579C141.445 138.115 141.565 137.651 141.806 137.187C141.806 136.491 141.926 135.911 142.166 135.447C142.406 134.287 142.887 133.244 143.608 132.316C144.329 130.692 145.411 129.184 146.853 127.792C148.661 126.144 150.595 124.922 152.654 124.125C155.523 123.014 158.636 122.729 161.994 123.269C169.684 124.197 176.173 129.068 181.461 137.883C184.345 142.058 187.349 147.973 190.473 155.628C194.799 165.602 200.567 181.376 207.777 202.948C215.468 226.145 220.395 240.294 222.558 245.398C224 241.918 225.442 237.859 226.884 233.22L228.687 228C229.167 225.913 229.528 224.637 229.768 224.173C236.017 208.632 245.27 189.727 257.527 167.458C264.977 154.004 271.706 143.218 277.715 135.099C281.56 129.996 285.165 125.821 288.53 122.573C293.817 117.47 299.345 114.455 305.113 113.527C312.563 112.135 319.293 113.527 325.301 117.702C329.627 120.95 332.871 125.357 335.034 130.924C337.678 137.187 339 145.538 339 155.976C339 162.239 338.519 169.662 337.558 178.244C337.558 179.636 337.318 182.304 336.837 186.247L336.476 189.379C336.236 202.832 335.275 226.377 333.592 260.011C332.15 293.414 331.429 319.278 331.429 337.603C331.429 342.474 329.627 346.649 326.022 350.129C322.657 353.376 318.451 355 313.404 355C308.357 355 304.031 353.376 300.426 350.129C297.062 346.649 295.379 342.474 295.379 337.603C295.379 319.278 296.1 293.298 297.542 259.663C299.225 225.797 300.186 202.137 300.426 188.683C300.426 187.523 300.547 185.551 300.787 182.768C301.268 178.824 301.628 176.273 301.868 175.113C302.349 169.778 302.71 165.138 302.95 161.195C298.864 167.458 294.298 174.997 289.251 183.811C277.955 204.456 269.423 222.085 263.655 236.699C263.415 236.931 263.295 237.395 263.295 238.091L261.132 244.006C258.969 250.269 256.806 255.952 254.643 261.055C251.278 268.942 247.673 275.205 243.828 279.844C236.377 289.355 227.725 293.762 217.871 293.066C212.344 292.602 207.417 290.166 203.091 285.759C201.409 283.671 199.606 281.12 197.683 278.104C195.28 273.929 192.636 268.13 189.752 260.707C186.868 253.052 181.461 237.395 173.53 213.735L171.006 206.428C165.959 258.388 162.835 295.27 161.633 317.074C161.393 321.945 159.35 326.005 155.505 329.252C151.9 332.5 147.574 334.007 142.527 333.775C137.72 333.543 133.634 331.688 130.27 328.208C126.905 324.497 125.343 320.322 125.583 315.682Z" fill="#5B3B2B"/>
<circle cx="381" cy="114" r="21" fill="#E2D2AA"/>
<path d="M372.823 221.162C374.709 217.653 376.73 214.617 378.885 212.052C381.174 209.353 383.666 207.261 386.36 205.776C389.189 204.157 392.354 203.145 395.856 202.74C399.493 202.2 403.197 202.807 406.968 204.562C410.066 205.911 413.096 208.206 416.06 211.445L418.484 214.279C419.158 215.089 419.696 215.696 420.1 216.101C422.121 217.991 423.198 220.353 423.333 223.187C423.468 225.886 422.525 228.248 420.505 230.273C418.619 232.297 416.262 233.377 413.433 233.512C410.739 233.647 408.382 232.702 406.362 230.678C405.419 229.868 404.341 228.788 403.129 227.438L400.907 224.807C400.099 223.862 399.56 223.322 399.29 223.187C397.674 222.512 395.991 223.187 394.24 225.211C391.007 228.99 388.044 235.266 385.35 244.039C383.06 251.597 381.309 259.695 380.097 268.333C378.885 276.836 378.278 283.044 378.278 286.958C378.278 288.173 378.211 289.05 378.076 289.59C378.076 289.995 378.076 290.4 378.076 290.805C377.807 291.75 377.403 292.627 376.864 293.437C375.921 295.191 374.642 296.541 373.025 297.486C369.523 299.24 366.089 299.105 362.722 297.081C361.779 296.406 360.971 295.664 360.297 294.854C359.624 293.909 359.152 293.234 358.883 292.829C358.748 292.289 358.681 291.952 358.681 291.817C358.546 291.412 358.411 290.94 358.277 290.4C358.142 290.13 358.075 289.86 358.075 289.59V287.971C358.075 287.566 358.007 286.621 357.873 285.136C357.873 283.652 357.873 282.504 357.873 281.695C357.603 273.462 357.334 268.063 357.064 265.499C356.391 258.076 355.852 252.812 355.448 249.708C355.313 248.358 355.044 245.929 354.64 242.42C354.236 238.91 353.899 236.211 353.63 234.322C353.226 230.003 352.687 220.893 352.013 206.991C351.879 204.292 352.754 201.93 354.64 199.905C356.526 197.746 358.815 196.599 361.509 196.464C364.338 196.329 366.762 197.206 368.783 199.096C370.938 200.985 372.083 203.347 372.217 206.181C372.621 215.494 372.823 220.488 372.823 221.162Z" fill="#985F41"/>
<path d="M459.029 192.415C461.723 190.255 464.686 189.783 467.919 190.998C469.131 191.268 470.949 191.807 473.374 192.617L479.839 194.844C481.59 195.384 483.139 195.991 484.486 196.666C489.47 199.096 494.723 203.549 500.245 210.028C505.767 216.506 509.404 224.132 511.155 232.904C513.041 241.677 513.108 250.315 511.357 258.818C509.471 267.726 505.7 275.689 500.043 282.707C494.386 289.59 487.045 294.179 478.021 296.473C475.327 297.283 470.68 297.621 464.08 297.486C458.558 297.351 454.45 297.148 451.756 296.878C446.099 296.069 440.24 294.246 434.178 291.412C427.983 288.578 423.134 285.001 419.632 280.682C416.534 276.903 414.379 272.315 413.166 266.916C411.954 261.652 411.55 256.591 411.954 251.732C412.224 246.738 412.964 241.677 414.177 236.549C416.062 228.856 418.891 221.635 422.662 214.887C426.434 208.003 430.811 202.74 435.795 199.096C437.007 198.151 438.489 197.206 440.24 196.261C442.125 195.182 443.944 194.237 445.695 193.427C447.58 192.617 448.658 192.145 448.927 192.01C452.429 190.12 455.797 190.255 459.029 192.415ZM458.221 209.42C456.739 210.23 455.19 210.973 453.574 211.647C452.093 212.322 450.88 212.93 449.937 213.469C449.129 213.874 448.321 214.347 447.513 214.887C444.954 216.911 442.327 220.353 439.633 225.211C436.94 229.935 434.852 235.266 433.37 241.205C431.889 247.683 431.283 253.217 431.552 257.806C431.956 262.395 433.101 265.836 434.987 268.131C436.603 270.02 439.297 271.842 443.068 273.597C446.974 275.351 450.813 276.498 454.584 277.038C456.47 277.308 459.77 277.511 464.484 277.646C469.198 277.646 472.094 277.578 473.172 277.443C478.021 276.094 482.062 273.462 485.294 269.548C488.527 265.499 490.749 260.573 491.961 254.769C493.174 248.965 493.174 243.162 491.961 237.358C490.749 231.555 488.527 226.764 485.294 222.985C481.523 218.531 478.358 215.696 475.798 214.482C474.856 213.942 473.845 213.537 472.768 213.267C471.825 212.862 470.276 212.39 468.121 211.85C465.966 211.175 463.878 210.433 461.858 209.623C461.05 209.488 460.241 209.151 459.433 208.611C459.029 209.016 458.625 209.285 458.221 209.42ZM445.493 166.096L453.372 158.201C453.641 157.931 454.315 157.324 455.392 156.379C456.47 155.434 457.009 154.894 457.009 154.759C457.143 154.624 458.154 153.815 460.039 152.33L464.888 148.281C466.909 146.526 469.266 145.784 471.96 146.054C474.788 146.324 477.078 147.539 478.829 149.698C480.58 151.723 481.321 154.152 481.051 156.986C480.782 159.686 479.57 161.912 477.415 163.667L472.768 167.514C471.151 168.863 470.276 169.606 470.141 169.74C470.007 169.875 469.468 170.348 468.525 171.158C467.717 171.832 467.178 172.372 466.909 172.777C466.639 173.047 465.696 173.924 464.08 175.409L459.231 180.268C457.345 182.157 454.988 183.102 452.16 183.102C449.466 183.102 447.176 182.157 445.291 180.268C443.405 178.243 442.462 175.881 442.462 173.182C442.462 170.348 443.472 167.986 445.493 166.096Z" fill="#985F41"/>
<path d="M525.986 209.218C527.198 213.402 531.912 226.494 540.129 248.493L541.745 253.149L542.149 250.72C543.765 238.978 545.045 230.678 545.988 225.819C546.796 221.77 547.671 218.598 548.614 216.304C549.288 214.414 550.096 212.862 551.039 211.647C553.867 207.868 557.437 206.384 561.747 207.194C566.192 207.868 569.963 210.433 573.061 214.887C574.947 217.451 576.765 220.96 578.516 225.414C580.536 230.813 582.893 239.248 585.587 250.72C588.82 264.487 590.706 272.449 591.244 274.609L591.851 276.026C593.197 273.462 594.612 270.088 596.093 265.904C597.575 261.45 599.326 255.309 601.346 247.481C603.501 239.113 604.646 234.727 604.781 234.322C607.205 226.764 609.024 221.905 610.236 219.745C610.909 218.666 613.536 215.022 618.116 208.813C619.732 206.654 621.887 205.371 624.581 204.967C627.409 204.427 629.901 205.034 632.056 206.789C634.346 208.408 635.693 210.635 636.097 213.469C636.636 216.169 636.03 218.666 634.279 220.96C630.238 226.494 628.15 229.395 628.015 229.665C627.342 230.745 626.062 234.322 624.177 240.395C624.042 240.53 622.964 244.579 620.944 252.542C618.924 260.505 616.971 267.186 615.085 272.584C612.122 280.952 609.091 287.296 605.993 291.615C603.434 294.989 600.269 297.621 596.497 299.51C592.861 301.535 588.753 301.535 584.173 299.51C580.671 298.026 577.775 294.989 575.485 290.4C574.273 287.836 573.061 284.461 571.849 280.278C571.041 277.308 569.02 269.008 565.788 255.376C564.845 251.192 564.037 247.751 563.363 245.051L562.151 253.554C560.4 265.836 559.12 274.069 558.312 278.253C557.639 282.167 556.965 285.204 556.292 287.363C555.618 289.253 554.877 290.805 554.069 292.02C550.971 296.473 546.931 297.958 541.947 296.473C540.869 296.203 539.859 295.731 538.916 295.056C537.974 294.381 537.3 293.774 536.896 293.234L536.29 292.424C536.021 292.02 535.684 291.48 535.28 290.805C534.876 290.13 534.404 289.185 533.865 287.971L530.431 279.67L521.137 255.579C512.651 232.904 507.802 219.07 506.59 214.077C505.782 211.377 506.119 208.881 507.6 206.586C509.082 204.157 511.17 202.605 513.864 201.93C516.558 201.12 519.049 201.457 521.339 202.942C523.764 204.427 525.313 206.519 525.986 209.218Z" fill="#985F41"/>
<path d="M710.1 201.525C698.247 216.506 687.674 227.843 678.38 235.536C677.033 236.616 674.339 238.438 670.298 241.002C668.143 242.487 666.594 243.702 665.651 244.647L666.662 245.456C670.029 247.616 674.945 250.383 681.41 253.757L691.916 259.02L703.837 265.094C706.935 266.713 709.292 267.996 710.908 268.94C713.198 270.56 714.612 272.787 715.151 275.621C715.69 278.321 715.151 280.817 713.534 283.112C712.053 285.406 709.898 286.823 707.069 287.363C704.375 287.903 701.884 287.431 699.594 285.946C698.516 285.136 696.698 284.057 694.139 282.707L683.431 277.443L672.117 271.775C666.325 268.67 661.543 265.971 657.772 263.677C657.637 275.689 656.29 286.756 653.731 296.878C653.058 299.578 651.509 301.602 649.084 302.952C646.66 304.436 644.101 304.774 641.407 303.964C638.713 303.289 636.625 301.737 635.144 299.308C633.797 296.878 633.527 294.314 634.335 291.615C636.49 283.382 637.635 275.149 637.77 266.916C637.905 258.683 637.231 247.818 635.75 234.322C634.403 220.69 633.595 211.377 633.325 206.384C632.652 193.562 632.988 178.716 634.335 161.845C634.605 159.011 635.817 156.716 637.972 154.962C640.127 153.072 642.552 152.262 645.245 152.532C648.074 152.802 650.364 154.017 652.115 156.176C654 158.336 654.809 160.765 654.539 163.465C653.192 179.526 652.856 193.427 653.529 205.169C653.798 209.758 654.405 216.979 655.347 226.831C656.425 226.021 657.772 225.076 659.388 223.997C662.755 221.837 664.776 220.42 665.449 219.745C673.261 213.267 682.892 203.01 694.341 188.973C696.092 186.814 698.314 185.599 701.008 185.329C703.837 184.924 706.328 185.599 708.484 187.354C710.639 189.108 711.851 191.403 712.12 194.237C712.524 196.936 711.851 199.365 710.1 201.525Z" fill="#985F41"/>
<path d="M787.607 218.936L785.991 217.721C782.084 216.371 777.034 217.383 770.838 220.758C764.642 223.997 758.783 229.193 753.26 236.346C747.873 243.229 744.438 249.91 742.956 256.389C741.744 261.787 742.35 265.836 744.775 268.535C745.718 269.75 747.805 270.29 751.038 270.155C758.311 269.885 764.844 265.499 770.636 256.996C774.407 251.462 778.919 241.88 784.172 228.248C785.519 224.739 786.664 221.635 787.607 218.936ZM783.364 273.799C774.474 284.326 763.968 289.86 751.846 290.4C742.283 290.805 734.807 287.971 729.42 281.897C722.685 274.069 720.665 264.082 723.359 251.935C725.379 242.487 730.026 233.107 737.299 223.794C741.744 218.126 746.728 213.132 752.25 208.813C757.772 204.359 764.17 200.985 771.444 198.691C778.717 196.396 785.586 196.261 792.052 198.286C792.86 198.556 793.601 198.893 794.274 199.298C795.756 197.678 797.507 196.666 799.527 196.261C803.568 195.317 806.868 196.531 809.427 199.905C810.37 200.985 811.043 202.2 811.447 203.549L811.649 206.586V208.206C811.111 212.39 809.898 218.126 808.013 225.414C806.262 232.162 805.184 237.021 804.78 239.99C804.107 244.444 803.635 249.843 803.366 256.186C803.231 264.014 803.164 268.266 803.164 268.94C803.299 269.615 803.703 273.732 804.376 281.29C804.645 284.124 803.837 286.621 801.952 288.78C800.201 290.94 797.911 292.154 795.082 292.424C792.388 292.694 789.964 291.952 787.809 290.197C785.654 288.308 784.442 286.014 784.172 283.314C784.038 282.1 783.835 280.48 783.566 278.455C783.431 276.296 783.364 274.744 783.364 273.799Z" fill="#985F41"/>
<circle cx="465.529" cy="257.529" r="15.5287" fill="#E2D2AA"/>
<circle cx="754.317" cy="258.317" r="9.31722" fill="#E2D2AA"/>
<circle cx="95" cy="113" r="14" fill="#E2D2AA"/>
</svg>
