<svg width="512" height="512" viewBox="0 0 512 512" fill="none" xmlns="http://www.w3.org/2000/svg">
<g clip-path="url(#clip0_1_3)">
<path d="M18.7733 300.587L101.333 384C103.317 386 105.676 387.587 108.276 388.67C110.875 389.753 113.664 390.31 116.48 390.31C119.296 390.31 122.085 389.753 124.684 388.67C127.284 387.587 129.643 386 131.627 384C133.626 382.017 135.213 379.657 136.296 377.058C137.379 374.458 137.937 371.67 137.937 368.853C137.937 366.037 137.379 363.249 136.296 360.649C135.213 358.049 133.626 355.69 131.627 353.707L55.68 277.333H490.667C496.325 277.333 501.751 275.086 505.752 271.085C509.752 267.084 512 261.658 512 256C512 250.342 509.752 244.916 505.752 240.915C501.751 236.914 496.325 234.667 490.667 234.667H54.4L131.627 157.44C135.409 153.473 137.519 148.201 137.519 142.72C137.519 137.239 135.409 131.967 131.627 128C129.643 126 127.284 124.413 124.684 123.33C122.085 122.247 119.296 121.69 116.48 121.69C113.664 121.69 110.875 122.247 108.276 123.33C105.676 124.413 103.317 126 101.333 128L18.7733 210.133C6.78821 222.133 0.0563049 238.4 0.0563049 255.36C0.0563049 272.32 6.78821 288.587 18.7733 300.587Z" fill="white"/>
</g>
<defs>
<clipPath id="clip0_1_3">
<rect width="512" height="512" fill="white"/>
</clipPath>
</defs>
</svg>
