<?xml version="1.0" ?><svg xmlns="http://www.w3.org/2000/svg" id="flat" viewBox="0 0 960 960"><path d="m595.506,418.531c17.521-18.934,40.753-51.422,63.86-75.471-26.387,4.861-53.179,13.205-78.544,23.339l17.913,102.976c30.577-10.459,58.035-24.452,88.16-36.687-.762-.729-65.714-11.56-91.389-14.156Z" fill="#feca7a"/><path d="m178.784,793.123c41.166,13.583,85.702,12.457,128.802,7.819,100.682-10.835,209.461-48.015,257.488-137.165,25.791-47.874,30.2-104.043,32.713-158.364,2.739-59.209,1.925-124.32-36.24-169.669-25.352-30.124-51.687-55.69-85.731-65.087-42.2-11.648-98.749-8.362-139.522,7.579-53.684,20.988-87.363,72.405-99.08,128.842-11.717,56.437-10.725,115.39-27.648,170.49-7.802,25.404-20.46,50.169-38.05,70.219-17.045,19.429-28.91,35.607-60.24,50.514-72.185,34.347,28.515,81.954,67.509,94.82Z" fill="#81b9e6"/><path d="m315.793,740.797c-9.088,0-17.281-4.143-21.49-10.907-2.653-4.263-3.2-10.091-2.336-15.484-10.118,7.282-23.393,15.066-35.893,18.916-5.702,1.756-13.19,3.539-20.541,1.72-8.138-2.013-14.172-8.489-14.675-15.75-.836-12.072,12.467-20.488,23.157-27.251,3.598-2.275,6.996-4.426,9.231-6.336,15.941-13.627,27.224-26.054,35.509-39.105,8.751-13.787,14.773-29.491,20.597-44.679,5.83-15.205,11.859-30.927,20.684-45.037,10.563-16.891,25.114-31.339,42.079-41.782,13.781-8.484,29.044-13.949,44.14-15.805,16.952-2.085,32.924.636,46.19,7.863,24.75,13.486,28.96,39.238,33.031,64.143,2.362,14.449,2.808,26.083,1.403,36.612-1.797,13.468-7.483,26.832-17.894,42.058-13.052,19.087-33.505,40.996-62.527,66.979-7.073,6.332-16.433,11.245-27.819,14.604-11,3.245-20.591,1.442-25.659-4.822-2.597-3.211-3.483-6.757-3.671-10.291-.135.155-.271.312-.407.469-1.756,2.021-3.573,4.112-5.634,5.961-4.358,3.907-9.1,7.399-14.095,10.379-8.257,4.927-15.7,7.394-22.754,7.541-.209.005-.418.007-.626.007Zm-17.361-38.194c.732,0,1.463.267,2.037.797,1.11,1.026,1.284,2.718.404,3.948-3.346,4.679-4.719,14.16-1.476,19.372,3.144,5.053,9.78,8.203,16.897,8.072,5.986-.126,12.464-2.315,19.805-6.695,4.664-2.782,9.093-6.044,13.164-9.694,1.783-1.599,3.399-3.459,5.11-5.428,1.965-2.263,3.998-4.603,6.351-6.569.93-.777,2.238-.918,3.312-.357,1.075.561,1.707,1.713,1.601,2.921l-.051.574c-.446,5.038-.867,9.797,2.06,13.415,4.109,5.081,12.664,4.8,19.296,2.842,10.526-3.105,19.11-7.587,25.515-13.32,64.841-58.051,75.999-86.799,78.475-105.358,1.324-9.928.887-21.002-1.377-34.851-4.015-24.562-7.807-47.761-29.98-59.842-18.38-10.017-50.184-13.23-84.314,7.781h0c-16.182,9.961-30.061,23.743-40.137,39.854-8.517,13.618-14.44,29.065-20.168,44.004-5.929,15.462-12.061,31.451-21.133,45.745-8.614,13.571-20.268,26.425-36.676,40.451-2.562,2.19-6.137,4.452-9.921,6.846-9.342,5.91-20.968,13.265-20.379,21.767.362,5.232,5.371,9.162,10.13,10.34,5.918,1.463,12.373-.102,17.335-1.63,15.523-4.78,32.43-16.067,42.192-24.28.559-.471,1.246-.704,1.931-.704Zm75.255-184.947h.01-.01Z" fill="#e0eded"/><path d="m454.269,390.71c-1.583,0-2.907-1.238-2.993-2.838-.403-7.448-.403-15.379,2.308-22.913,2.054-5.709,6.299-11.23,11.079-14.412,4.722-3.142,10.254-4.973,15.576-5.156,3.295-.112,9.118.51,12.537,1.617,7.724,2.503,11.733,6.771,15.486,11.295,3.009,3.627,4.854,7.676,6.637,11.592.743,1.63,1.511,3.315,2.347,4.93.762,1.471.188,3.281-1.283,4.044-1.471.764-3.281.188-4.044-1.284-.906-1.749-1.706-3.504-2.48-5.202-1.695-3.722-3.297-7.236-5.795-10.248-3.987-4.805-7.049-7.581-12.719-9.419-2.653-.86-7.818-1.42-10.48-1.328-4.226.146-8.651,1.622-12.459,4.156-3.705,2.465-7.143,6.958-8.758,11.447-2.219,6.167-2.389,12.678-1.962,20.558.09,1.654-1.179,3.068-2.833,3.158-.055.003-.11.004-.165.004Z" fill="#3d4659"/><g><g><path d="m723.161,184.145c1.612-.382,2.61-1.998,2.228-3.61-.382-1.612-2.001-2.613-3.61-2.228-8.212,1.945-13.654,2.33-19.97-8.723-.701-1.227-1.707-3.592-2.772-6.096-1.437-3.378-3.065-7.206-4.588-9.743-10.191-16.97-22.98-14.914-29.851-13.807-.804.129-1.521.58-1.985,1.248-.465.668-.639,1.497-.481,2.295,1.17,5.921,2.299,11.958,3.495,18.349,2.175,11.626,4.413,23.559,6.982,35.205-.973-.244-2.015-.392-3.127-.432-10.626-.401-25.577,9.066-29.041,18.379-3.224,8.669-.735,16.805,6.192,20.247,2.256,1.121,4.728,1.672,7.299,1.672,4.745,0,9.829-1.875,14.529-5.497,8.933-6.885,13.921-17.749,12.131-26.419-.005-.025-.013-.051-.019-.076-.002-.007-.001-.015-.003-.022-3.469-14.353-6.304-29.506-9.045-44.16-.991-5.299-1.937-10.354-2.899-15.312,6.18-.718,13.774-.08,20.681,11.419,1.309,2.18,2.85,5.805,4.21,9.003,1.185,2.786,2.208,5.192,3.083,6.724,8.311,14.542,17.308,13.777,26.562,11.584Z" fill="#3d4659"/><path d="m653.931,237.401c-2.688,0-5.219-.58-7.522-1.724-7.168-3.562-9.755-11.949-6.438-20.869,3.533-9.499,18.697-19.103,29.529-18.705.842.03,1.664.123,2.452.274-2.542-11.605-4.811-23.731-6.817-34.456-1.193-6.38-2.32-12.405-3.494-18.344-.183-.926.022-1.902.562-2.678.54-.775,1.384-1.306,2.316-1.456,6.986-1.123,19.989-3.222,30.358,14.043,1.542,2.57,3.177,6.414,4.619,9.806,1.065,2.503,2.062,4.846,2.746,6.043,6.269,10.968,11.465,10.367,19.421,8.484.904-.219,1.842-.067,2.639.423.799.491,1.357,1.264,1.573,2.176.216.909.064,1.849-.427,2.645-.491.795-1.262,1.353-2.172,1.567-9.447,2.239-18.629,3.02-27.112-11.822-.889-1.557-1.918-3.975-3.109-6.774-1.357-3.19-2.89-6.795-4.18-8.942-6.5-10.823-13.548-11.854-19.658-11.238.917,4.731,1.819,9.557,2.763,14.602l.034.18c2.739,14.645,5.572,29.787,9.04,44.135l.026.114c1.827,8.852-3.237,19.919-12.315,26.917-4.754,3.664-9.884,5.601-14.834,5.601Zm14.878-40.311c-10.415,0-24.561,9.086-27.901,18.065-3.13,8.416-.74,16.303,5.946,19.625,2.163,1.075,4.544,1.62,7.077,1.62,4.727,0,9.646-1.865,14.224-5.394,8.787-6.771,13.699-17.432,11.946-25.921l-.029-.148c-3.463-14.307-6.299-29.463-9.041-44.12l-.033-.18c-.979-5.232-1.914-10.229-2.865-15.128l-.103-.53.536-.062c6.549-.759,14.184.032,21.167,11.658,1.325,2.208,2.873,5.846,4.238,9.056,1.183,2.782,2.201,5.175,3.062,6.681,8.139,14.242,16.948,13.493,26.013,11.346h0c.65-.154,1.201-.552,1.551-1.12s.459-1.239.305-1.889c-.154-.651-.554-1.204-1.125-1.555-.568-.35-1.237-.459-1.883-.302-3.825.907-7.542,1.624-10.969.502-3.48-1.143-6.516-4.149-9.552-9.463-.713-1.248-1.721-3.617-2.788-6.124-1.439-3.386-3.06-7.195-4.566-9.705-10.02-16.686-22.588-14.655-29.342-13.571-.666.107-1.269.486-1.654,1.04-.386.555-.532,1.251-.401,1.913,1.174,5.942,2.302,11.971,3.496,18.354,2.049,10.953,4.371,23.368,6.979,35.189l.174.789-.784-.196c-.952-.239-1.969-.379-3.023-.417-.216-.009-.434-.013-.653-.013Z" fill="#3d4659"/></g><g><path d="m873.915,131.053c-8.419.557-13.851.039-18.253-11.904-.488-1.325-1.089-3.825-1.726-6.472-.858-3.568-1.831-7.612-2.913-10.365-7.246-18.423-20.198-18.508-27.157-18.554-.771-.016-1.596.321-2.165.902-.569.582-.877,1.371-.854,2.185.174,6.034.29,12.177.412,18.679.222,11.824.457,23.96,1.064,35.87-.919-.402-1.923-.72-3.013-.943-10.44-2.139-26.724,4.713-31.68,13.325-4.613,8.016-3.505,16.452,2.758,20.991,2.865,2.077,6.332,3.113,10.081,3.113,3.848,0,7.992-1.093,12.08-3.276,9.948-5.313,16.664-15.203,16.333-24.05-.001-.027-.005-.054-.006-.082,0-.006.001-.013,0-.019-1.048-14.727-1.338-30.138-1.618-45.042-.102-5.392-.198-10.536-.328-15.586,6.216.312,13.598,2.198,18.508,14.682.93,2.365,1.851,6.194,2.664,9.573.708,2.944,1.32,5.487,1.93,7.143,5.792,15.715,14.792,16.452,24.281,15.816,1.653-.11,2.904-1.539,2.794-3.192-.11-1.654-1.538-2.902-3.192-2.794Z" fill="#3d4659"/><path d="m800.471,178.38c-3.892,0-7.479-1.109-10.374-3.208-6.481-4.697-7.646-13.396-2.898-21.646,5.044-8.767,21.598-15.733,32.214-13.566.827.17,1.623.396,2.374.676-.589-11.887-.821-24.206-1.026-35.103-.122-6.481-.236-12.603-.412-18.674-.027-.944.335-1.873.996-2.549.664-.678,1.612-1.029,2.532-1.053,7.07.047,20.243.134,27.612,18.871,1.096,2.787,2.073,6.849,2.934,10.431.636,2.643,1.232,5.121,1.709,6.416,4.367,11.848,9.592,12.118,17.75,11.578h0c1.923-.132,3.596,1.336,3.724,3.26.062.933-.243,1.834-.858,2.537s-1.468,1.125-2.401,1.188c-9.686.646-18.871-.098-24.784-16.143-.621-1.686-1.235-4.24-1.947-7.198-.808-3.362-1.725-7.174-2.643-9.508-4.623-11.753-11.403-13.931-17.529-14.334.122,4.844.215,9.779.312,14.939l.002.106c.28,14.908.57,30.308,1.617,45.017l-.493.136.5-.019c.338,9.03-6.486,19.109-16.597,24.51-4.084,2.182-8.343,3.335-12.315,3.335Zm14.639-37.828c-10.007,0-22.786,6.072-27.044,13.473-4.479,7.783-3.427,15.956,2.618,20.337,2.723,1.975,6.107,3.019,9.787,3.019,3.808,0,7.904-1.112,11.844-3.218,9.785-5.227,16.393-14.927,16.068-23.59l-.005-.146c-1.049-14.672-1.338-30.085-1.619-44.99l-.002-.121c-.101-5.353-.197-10.461-.326-15.477l-.014-.539.539.027c6.583.329,13.981,2.369,18.948,14.998.943,2.398,1.868,6.245,2.685,9.639.704,2.928,1.312,5.457,1.913,7.087,5.674,15.396,14.482,16.112,23.779,15.49.667-.044,1.275-.346,1.715-.848.44-.503.657-1.146.613-1.812-.091-1.375-1.291-2.42-2.661-2.328-3.922.261-7.706.354-10.898-1.321-3.244-1.701-5.741-5.168-7.857-10.909-.497-1.35-1.1-3.855-1.738-6.509-.858-3.57-1.826-7.595-2.897-10.318-7.122-18.107-19.854-18.191-26.695-18.236-.651,0-1.337.274-1.804.752-.472.482-.731,1.146-.711,1.82.175,6.076.291,12.2.412,18.684.209,11.129.446,23.741,1.064,35.854l.041.807-.741-.323c-.897-.392-1.877-.698-2.913-.91-1.288-.265-2.666-.389-4.101-.389Z" fill="#3d4659"/></g><g><path d="m809.246,299.202c-.001-.007,0-.015-.002-.022-2.647-14.523-4.615-29.812-6.518-44.597-.833-6.466-1.619-12.573-2.455-18.583-.128-.927-.682-1.739-1.496-2.199-.815-.461-1.798-.515-2.656-.146-8.531,3.654-17.315,7.235-25.812,10.699-13.393,5.46-26.042,10.617-37.074,15.767-1.193.558-1.884,1.827-1.702,3.132.831,5.979,1.615,12.07,2.445,18.52,1.51,11.73,3.066,23.771,4.969,35.543-.957-.299-1.99-.506-3.098-.609-10.612-.978-26.052,7.599-30.038,16.698-3.712,8.471-1.691,16.735,5.03,20.565,2.484,1.416,5.286,2.113,8.236,2.113,4.448,0,9.233-1.586,13.774-4.691,9.31-6.365,14.908-16.928,13.614-25.686-.004-.026-.01-.052-.015-.078-.001-.007,0-.015-.002-.022-2.647-14.525-4.616-29.814-6.519-44.601-.327-2.537-.646-5.012-.964-7.455,15.56-7.512,37.312-16.812,57.013-24.377.263,2.029.528,4.08.798,6.176,1.51,11.729,3.066,23.768,4.968,35.54-.957-.299-1.989-.506-3.097-.609-10.617-.969-26.051,7.599-30.039,16.698-3.711,8.471-1.689,16.735,5.031,20.565,2.484,1.416,5.286,2.114,8.237,2.114,4.447,0,9.232-1.587,13.772-4.691,9.31-6.365,14.909-16.928,13.614-25.687-.004-.026-.01-.052-.015-.078Z" fill="#3d4659"/><path d="m719.077,356.584c-3.093,0-5.947-.733-8.484-2.179-6.955-3.964-9.06-12.483-5.24-21.2,4.054-9.253,19.75-17.977,30.542-16.996.842.079,1.657.218,2.434.414-1.881-11.752-3.455-23.976-4.847-34.787-.829-6.442-1.612-12.528-2.444-18.515-.213-1.53.585-2.999,1.986-3.653,11.047-5.156,23.7-10.315,37.096-15.776,8.539-3.481,17.299-7.053,25.804-10.696.995-.427,2.153-.363,3.099.17.944.534,1.597,1.493,1.745,2.566.833,5.988,1.617,12.072,2.446,18.513,1.911,14.847,3.876,30.122,6.523,44.646l.003.03-.493.082.497-.064c1.334,9.01-4.352,19.772-13.814,26.242-4.572,3.126-9.432,4.778-14.055,4.778-3.092,0-5.947-.733-8.484-2.18-6.954-3.964-9.06-12.483-5.241-21.2,4.051-9.245,19.757-17.982,30.542-16.996.839.078,1.654.216,2.434.413-1.879-11.74-3.453-23.967-4.846-34.782l-.716-5.544c-19.36,7.454-40.744,16.599-56.057,23.976l.918,7.098c1.902,14.777,3.869,30.058,6.515,44.574l.02.117c1.321,8.94-4.365,19.702-13.826,26.172-4.571,3.126-9.432,4.778-14.056,4.778Zm15.044-39.454c-10.321,0-24.145,8.013-27.853,16.476-3.604,8.225-1.667,16.234,4.819,19.931,2.384,1.359,5.072,2.048,7.989,2.048,4.422,0,9.088-1.592,13.492-4.604,9.158-6.261,14.668-16.623,13.401-25.199l-.021-.146c-2.644-14.48-4.612-29.774-6.517-44.565l-1.01-7.812.325-.157c15.513-7.489,37.374-16.837,57.051-24.394l.593-.228.879,6.807c1.421,11.045,3.033,23.564,4.965,35.522l.129.798-.771-.24c-.938-.293-1.946-.491-2.994-.588-10.449-.953-25.625,7.478-29.535,16.401-3.603,8.224-1.666,16.233,4.82,19.93,2.385,1.359,5.073,2.049,7.989,2.049,4.42,0,9.085-1.592,13.49-4.604,9.158-6.261,14.669-16.624,13.402-25.2l.48-.151-.489.104-.012-.1c-2.645-14.487-4.613-29.775-6.516-44.561-.838-6.513-1.622-12.594-2.454-18.577-.106-.767-.572-1.452-1.247-1.833-.676-.382-1.503-.427-2.212-.122-8.513,3.647-17.278,7.221-25.754,10.676-13.451,5.484-26.093,10.638-37.118,15.784-1,.468-1.571,1.517-1.418,2.609.833,5.992,1.617,12.08,2.446,18.525,1.421,11.041,3.032,23.556,4.966,35.527l.129.799-.772-.241c-.933-.293-1.94-.49-2.995-.589-.548-.051-1.109-.075-1.681-.075Z" fill="#3d4659"/></g></g><g><path d="m416.103,853.667c-16.906-6.57-34.334-11.81-52.062-15.675l2.305-45.68c.083-1.654-1.191-3.063-2.846-3.146-1.651-.107-3.063,1.19-3.146,2.846l-2.257,44.733c-6.719-1.343-13.477-2.491-20.262-3.435-1.639-.225-3.157.917-3.385,2.559-.229,1.641.917,3.156,2.558,3.385,7.508,1.045,14.98,2.349,22.403,3.89,10.144,10.816,23.441,23.725,33.352,32.361.569.495,1.271.738,1.97.738.837,0,1.67-.349,2.263-1.029,1.088-1.249.958-3.144-.291-4.232-7.858-6.848-17.88-16.425-26.715-25.469,14.934,3.596,29.628,8.186,43.94,13.747.357.14.724.205,1.086.205,1.201,0,2.335-.728,2.797-1.914.6-1.545-.166-3.283-1.71-3.883Z" fill="#f2ab5a"/><path d="m509.441,823.306c-16.507-3.449-33.222-6.487-49.98-9.11,1.515-17.706,1.917-35.63,1.165-53.33-.07-1.655-1.445-2.932-3.125-2.87-1.655.07-2.94,1.469-2.87,3.124.735,17.312.35,34.842-1.116,52.164-9.671-1.456-19.35-2.779-29.007-3.944-1.643-.195-3.14.975-3.338,2.619-.198,1.646.975,3.14,2.619,3.338,10.32,1.245,20.666,2.663,31,4.241,4.789,4.137,11.37,9.352,17.758,14.414,6.563,5.198,13.35,10.575,18.067,14.684.568.495,1.271.738,1.969.738.837,0,1.67-.349,2.264-1.029,1.088-1.25.958-3.145-.292-4.232-4.823-4.201-11.666-9.622-18.283-14.863-3.334-2.642-6.723-5.327-9.872-7.87,14.018,2.309,27.988,4.914,41.811,7.802.207.043.413.064.616.064,1.391,0,2.638-.973,2.934-2.388.339-1.622-.701-3.211-2.323-3.55Z" fill="#f2ab5a"/></g></svg>