<svg width="512" height="512" viewBox="0 0 512 512" fill="none" xmlns="http://www.w3.org/2000/svg">
<g clip-path="url(#clip0_1_5)">
<path d="M489.003 36.2667C481.819 30.2449 473.393 25.8835 464.329 23.4939C455.265 21.1043 445.785 20.7453 436.565 22.4427L304.725 46.4C285.859 49.8016 268.692 59.4676 256 73.8347C243.318 59.4439 226.149 49.7548 207.275 46.336L75.4347 22.3787C66.2137 20.7042 56.7376 21.0753 47.6758 23.4657C38.6141 25.8561 30.1879 30.2075 22.9927 36.2123C15.7975 42.2172 10.0088 49.7289 6.03576 58.2168C2.06273 66.7047 0.00227723 75.9616 0 85.3333L0 444.459L256 491.029L512 444.459V85.3333C512.001 75.9684 509.941 66.7181 505.967 58.2384C501.992 49.7587 496.201 42.2574 489.003 36.2667ZM234.667 443.733L42.6667 408.875V85.3333C42.6693 82.2099 43.3578 79.1252 44.6835 76.297C46.0091 73.4689 47.9396 70.9663 50.3386 68.9661C52.7376 66.966 55.5465 65.517 58.567 64.7215C61.5874 63.9261 64.7457 63.8036 67.8187 64.3627L199.637 88.32C209.468 90.1086 218.36 95.2909 224.761 102.963C231.163 110.636 234.668 120.312 234.667 130.304V443.733ZM469.333 408.832L277.333 443.733V130.304C277.332 120.312 280.837 110.636 287.239 102.963C293.64 95.2909 302.532 90.1086 312.363 88.32L444.181 64.3627C447.254 63.8036 450.413 63.9261 453.433 64.7215C456.453 65.517 459.262 66.966 461.661 68.9661C464.06 70.9663 465.991 73.4689 467.317 76.297C468.642 79.1252 469.331 82.2099 469.333 85.3333V408.832Z" fill="white"/>
</g>
<defs>
<clipPath id="clip0_1_5">
<rect width="512" height="512" fill="white"/>
</clipPath>
</defs>
</svg>
