<svg width="512" height="512" viewBox="0 0 512 512" fill="none" xmlns="http://www.w3.org/2000/svg">
<g clip-path="url(#clip0_141_18)">
<path d="M288 256C288 273.664 273.664 288 256 288C238.336 288 224 273.664 224 256C224 238.336 238.336 224 256 224C273.664 224 288 238.336 288 256ZM362.667 224C345.003 224 330.667 238.336 330.667 256C330.667 273.664 345.003 288 362.667 288C380.331 288 394.667 273.664 394.667 256C394.667 238.336 380.331 224 362.667 224ZM149.333 224C131.669 224 117.333 238.336 117.333 256C117.333 273.664 131.669 288 149.333 288C166.997 288 181.333 273.664 181.333 256C181.333 238.336 166.997 224 149.333 224ZM512 263.253V405.333C512 464.149 464.149 512 405.333 512H279.104C129.749 512 10.0266 409.771 0.63992 274.219C-4.50141 200.064 22.5493 127.488 74.8586 75.1147C127.168 22.7414 199.744 -4.39463 273.835 0.618701C407.381 9.68537 512 125.035 512 263.253ZM469.333 263.253C469.333 147.392 382.208 50.7307 270.955 43.1787C266.069 42.8374 261.184 42.688 256.32 42.688C199.659 42.688 145.195 65.0454 105.045 105.259C61.4399 148.907 38.8906 209.429 43.1999 271.275C51.1573 386.048 150.379 469.355 279.125 469.355H405.355C440.64 469.355 469.355 440.64 469.355 405.355V263.275L469.333 263.253Z" fill="white"/>
</g>
<defs>
<clipPath id="clip0_141_18">
<rect width="512" height="512" fill="white"/>
</clipPath>
</defs>
</svg>
