<svg width="512" height="512" viewBox="0 0 512 512" fill="none" xmlns="http://www.w3.org/2000/svg">
<path d="M384 128C379.999 124.001 374.574 121.754 368.917 121.754C363.261 121.754 357.835 124.001 353.835 128L256 225.835L158.165 128C154.165 124.001 148.74 121.754 143.083 121.754C137.426 121.754 132.001 124.001 128 128C124.001 132.001 121.754 137.426 121.754 143.083C121.754 148.74 124.001 154.165 128 158.165L225.835 256L128 353.835C124.001 357.835 121.754 363.261 121.754 368.917C121.754 374.574 124.001 379.999 128 384C132.001 387.999 137.426 390.246 143.083 390.246C148.74 390.246 154.165 387.999 158.165 384L256 286.165L353.835 384C357.835 387.999 363.261 390.246 368.917 390.246C374.574 390.246 379.999 387.999 384 384C387.999 379.999 390.246 374.574 390.246 368.917C390.246 363.261 387.999 357.835 384 353.835L286.165 256L384 158.165C387.999 154.165 390.246 148.74 390.246 143.083C390.246 137.426 387.999 132.001 384 128Z" fill="white"/>
</svg>
