<svg width="512" height="512" viewBox="0 0 512 512" fill="none" xmlns="http://www.w3.org/2000/svg">
<g clip-path="url(#clip0_1_7)">
<path d="M149.333 469.333H106.667C89.6928 469.333 73.4142 462.591 61.4118 450.588C49.4095 438.586 42.6667 422.307 42.6667 405.333V106.667C42.6667 89.6928 49.4095 73.4142 61.4118 61.4118C73.4142 49.4095 89.6928 42.6667 106.667 42.6667H149.333C154.991 42.6667 160.417 40.4191 164.418 36.4183C168.419 32.4175 170.667 26.9913 170.667 21.3333C170.667 15.6754 168.419 10.2492 164.418 6.24839C160.417 2.24761 154.991 0 149.333 0L106.667 0C78.3873 0.0338743 51.2759 11.2828 31.2794 31.2794C11.2828 51.2759 0.0338743 78.3873 0 106.667L0 405.333C0.0338743 433.613 11.2828 460.724 31.2794 480.721C51.2759 500.717 78.3873 511.966 106.667 512H149.333C154.991 512 160.417 509.752 164.418 505.752C168.419 501.751 170.667 496.325 170.667 490.667C170.667 485.009 168.419 479.583 164.418 475.582C160.417 471.581 154.991 469.333 149.333 469.333Z" fill="white"/>
<path d="M490.667 234.667L154.091 235.349C155.962 231.874 158.302 228.672 161.045 225.835L243.797 143.083C245.835 141.115 247.46 138.761 248.578 136.158C249.696 133.555 250.285 130.756 250.309 127.923C250.334 125.091 249.794 122.281 248.722 119.66C247.649 117.038 246.065 114.656 244.062 112.653C242.059 110.65 239.677 109.066 237.055 107.993C234.433 106.92 231.624 106.381 228.791 106.405C225.959 106.43 223.159 107.018 220.557 108.136C217.954 109.255 215.6 110.88 213.632 112.917L130.837 195.669C114.84 211.672 105.853 233.373 105.853 256C105.853 278.627 114.84 300.328 130.837 316.331L213.589 399.083C215.557 401.12 217.911 402.745 220.514 403.863C223.117 404.982 225.916 405.57 228.749 405.595C231.581 405.619 234.391 405.08 237.012 404.007C239.634 402.934 242.016 401.35 244.019 399.347C246.022 397.344 247.606 394.962 248.679 392.34C249.752 389.719 250.291 386.909 250.267 384.077C250.242 381.244 249.654 378.445 248.535 375.842C247.417 373.239 245.792 370.885 243.755 368.917L161.003 286.165C158.615 283.707 156.531 280.971 154.795 278.016L490.667 277.333C496.325 277.333 501.751 275.086 505.752 271.085C509.752 267.084 512 261.658 512 256C512 250.342 509.752 244.916 505.752 240.915C501.751 236.914 496.325 234.667 490.667 234.667Z" fill="white"/>
</g>
<defs>
<clipPath id="clip0_1_7">
<rect width="512" height="512" fill="white"/>
</clipPath>
</defs>
</svg>
