<svg width="512" height="512" viewBox="0 0 512 512" fill="none" xmlns="http://www.w3.org/2000/svg">
<g clip-path="url(#clip0_1_10)">
<path d="M284.544 17.7707C276.709 10.7186 266.541 6.81653 256 6.81653C245.459 6.81653 235.291 10.7186 227.456 17.7707L0 222.485V444.352C0 462.457 7.19236 479.821 19.9948 492.624C32.7973 505.426 50.1612 512.619 68.2667 512.619H443.733C461.839 512.619 479.203 505.426 492.005 492.624C504.808 479.821 512 462.457 512 444.352V222.485L284.544 17.7707ZM320 469.888H192V362.667C192 345.693 198.743 329.414 210.745 317.412C222.747 305.41 239.026 298.667 256 298.667C272.974 298.667 289.253 305.41 301.255 317.412C313.257 329.414 320 345.693 320 362.667V469.888ZM469.333 444.288C469.333 451.078 466.636 457.589 461.835 462.39C457.034 467.191 450.523 469.888 443.733 469.888H362.667V362.667C362.667 334.377 351.429 307.246 331.425 287.242C311.421 267.238 284.29 256 256 256C227.71 256 200.579 267.238 180.575 287.242C160.571 307.246 149.333 334.377 149.333 362.667V469.888H68.2667C61.4771 469.888 54.9657 467.191 50.1647 462.39C45.3638 457.589 42.6667 451.078 42.6667 444.288V241.472L256 49.472L469.333 241.472V444.288Z" fill="white"/>
</g>
<defs>
<clipPath id="clip0_1_10">
<rect width="512" height="512" fill="white"/>
</clipPath>
</defs>
</svg>
