<?xml version="1.0" ?><svg xmlns="http://www.w3.org/2000/svg" id="flat" viewBox="0 0 960 960"><path d="m742.91,485.85c-51.51,3.72-129.44,3.4-172.67,3.72-17.751-9.682-23.232-21.838-20.19-35.71,59.75,3.91,109.423,9.273,168.873,14.253,5.52.47,18.417,17.597,23.987,17.737Z" fill="#614d48"/><path d="m272.745,453.259c26.79-4.29,56.32-12.347,83.39-14.277,21.44-1.52,55.703-.965,77.543-2.045-6.45,12.53-17.174,45.389-38.528,57.692-69.89,2.16-194.53,1.58-220.83-16.21,21.179-6.984,32.091-11.024,47.371-14.294,15.69-3.37,35.204-8.327,51.054-10.867Z" fill="#614d48"/><path d="m445.441,445.722c28.43-1.12,48.991-.099,76.961-.219.96-.01,22.506,3.923,27.649,8.357,6.89,11.83,13.62,23.73,20.19,35.71,34.79,63.47,65.01,128.98,90.74,196.83,7.45,19.62,14.56,39.78,15.36,60.75.33,8.82-.63,17.89-3.05,26.44-21.597,21.671-34.823,37.27-89.63,45.49h-156.96l-104.629-18.393c-9.39-10.2-19.043-35.946-15.951-52.457-.56-6.13-.66-12.32-.3-18.42,1.61-28.24,11.5-55.27,21.84-81.61,20.08-51.15,43.02-103.42,67.49-153.57,6.27-12.87,12.65-25.59,19.1-38.12,10.293-7.286,21.301-10.398,31.191-10.788Z" fill="#e0eded"/><path d="m221.047,478.66c-20.386,4.373-46.083,7.526-57.983-9.594-8.37-12.042-5.173-28.403-.905-42.434,35.9-118.003,126.999-217.927,241.19-264.552,43.233-17.653,91.547-27.951,136.699-16.036,39.045,10.304,72.042,36.153,101.533,63.74,57.72,53.994,106.795,117.209,144.795,186.512,6.71,12.238,13.174,24.956,15.203,38.764,2.029,13.808-1.067,29.075-11.166,38.708-10.703,10.21-26.733,12.18-41.525,12.158-73.885-.107-143.115-32.902-217.263-32.665-60.129.192-122.459,2.92-182.408,7.192-43.077,3.07-85.942,9.148-128.169,18.206Z" fill="#fe7e61"/><g><path d="m673.29,773.59c.61,1.13,1.23,2.26,1.86,3.38,25.54-16.18,52.58-29.6,82.25-35.42-21.31,19.77-33.15,50.72-44.39,77.53h-129.35c-4.29-32.07-9.51-54.71-18.17-85.88,24.84,15.84,45.46,38.24,59.21,64.29,6.67-30.81,13.9-61.72,20.57-92.53,6.76,23.82,16.18,46.89,28.02,68.63Z" fill="#6aac96"/><path d="m495.66,741.96c-29.31,15.69-53.69,47.6-68.96,77.12h-204.36c-17.86-26.36-35.71-52.72-53.57-79.08,34.37,13.64,68.95,27.4,100.26,47.07,1.41-25.13.15-48.01-3.01-72.98,13.9,10.73,27.28,22.13,40.1,34.14,10.13,9.47,19.89,19.33,29.28,29.53,8.24-20.72,18.01-42.37,26.24-63.09,6.12,21.23,14.64,41.76,25.37,61.08,36.46-11.1,72.18-22.69,108.65-33.79Z" fill="#6aac96"/><path d="m528.74,453.27c7.86-18.06,23.82-33.21,42.43-40.45,29.28-11.38,62.82-6.21,91.6,6.38,19.25,8.44,37.44,20.39,49.99,37.26,6.3,8.45,11.02,18.24,13.51,28.47-59.45-4.98-116.47-27.16-176.22-31.07-6.11-.41-12.25-.62-18.43-.6-.96,0-1.92.01-2.88.02v-.01Z" fill="#ffbeb5"/><path d="m443.9,455.18c-9.89.39-19.78.83-29.65,1.33-21.84,1.08-43.59,2.42-65.03,3.94-27.07,1.93-54.06,5.05-80.85,9.34,2.53-18.76,13.11-36.46,27.96-48.45,18.9-15.23,43.88-21.73,68.14-20.92,21.16.71,42.68,7.07,58.67,20.96,10.12,8.79,17.67,20.85,20.76,33.8Z" fill="#ffbeb5"/><path d="m774.73,375.84c-22.54.05-44.89-5.69-63.79-17.98-37.24-24.21-56.69-75.09-39.99-116.25.25-.65.52-1.28.81-1.92,39.36,41.27,73.99,87.04,102.97,136.15Z" fill="#ffbeb5"/><path d="m540.05,146.05c26.93,7.1,50.98,21.6,72.99,38.98-28,14.52-59.35,22.68-90.91,23.14-45.57.64-91.11-14.78-127.22-42.51,2.8-1.24,5.61-2.42,8.44-3.58,43.23-17.65,91.55-27.95,136.7-16.03Z" fill="#ffbeb5"/><path d="m577.54,314.21c1.79,21.46-17.55,39.47-37.97,46.31-29.15,9.76-61.14,3.92-90.67-4.62-8.86-2.57-17.81-5.44-25.41-10.66-7.61-5.22-13.82-13.18-14.89-22.34-1.5-12.88,7.22-24.82,17.27-33.02,32.48-26.51,146.46-38.43,151.67,24.33Z" fill="#ffbeb5"/><path d="m278.42,242.33c9.32,23.23,13.61,48.38,10.34,73.08-4.54,34.42-25.08,67.41-56.29,82.62-19.1,9.31-42,10.85-62.18,4.69h-.01c22.85-60.9,60.47-116.09,108.14-160.39Z" fill="#ffbeb5"/></g></svg>