<svg width="512" height="512" viewBox="0 0 512 512" fill="none" xmlns="http://www.w3.org/2000/svg">
<g clip-path="url(#clip0_1_13)">
<path d="M277.333 512H243.861C240.528 512.001 237.241 511.221 234.264 509.722C231.287 508.224 228.702 506.049 226.717 503.371C224.732 500.693 223.403 497.588 222.834 494.304C222.266 491.019 222.475 487.648 223.445 484.459C229.554 465.731 233.323 446.32 234.667 426.667C234.667 415.351 230.171 404.498 222.17 396.497C214.168 388.495 203.316 384 192 384C180.684 384 169.832 388.495 161.83 396.497C153.829 404.498 149.333 415.351 149.333 426.667C150.677 446.32 154.446 465.731 160.555 484.459C161.525 487.648 161.734 491.019 161.166 494.304C160.597 497.588 159.268 500.693 157.283 503.371C155.298 506.049 152.713 508.224 149.736 509.722C146.759 511.221 143.472 512.001 140.139 512H106.667C78.3873 511.966 51.2759 500.717 31.2794 480.721C11.2828 460.724 0.0338743 433.613 0 405.333L0 234.667C0.0338743 206.387 11.2828 179.276 31.2794 159.279C51.2759 139.283 78.3873 128.034 106.667 128H112.469C109.091 114.012 107.147 99.7157 106.667 85.3333C106.667 62.7015 115.657 40.9967 131.66 24.9936C147.663 8.99045 169.368 0 192 0C214.632 0 236.337 8.99045 252.34 24.9936C268.343 40.9967 277.333 62.7015 277.333 85.3333C276.853 99.7157 274.909 114.012 271.531 128H277.333C304.794 128.003 331.199 138.585 351.062 157.546C370.926 176.508 382.722 202.393 384 229.824C397.99 226.45 412.285 224.499 426.667 224C449.298 224 471.003 232.99 487.006 248.994C503.01 264.997 512 286.702 512 309.333C512 331.965 503.01 353.67 487.006 369.673C471.003 385.676 449.298 394.667 426.667 394.667C412.285 394.173 397.991 392.229 384 388.864V405.333C383.966 433.613 372.717 460.724 352.721 480.721C332.724 500.717 305.613 511.966 277.333 512ZM271.531 469.333H277.333C294.307 469.333 310.586 462.591 322.588 450.588C334.591 438.586 341.333 422.307 341.333 405.333V361.195C341.332 357.862 342.112 354.575 343.611 351.597C345.11 348.62 347.285 346.036 349.962 344.051C352.64 342.066 355.746 340.736 359.03 340.168C362.314 339.599 365.686 339.809 368.875 340.779C387.604 346.882 407.014 350.651 426.667 352C437.983 352 448.835 347.505 456.837 339.503C464.838 331.502 469.333 320.649 469.333 309.333C469.333 298.017 464.838 287.165 456.837 279.163C448.835 271.162 437.983 266.667 426.667 266.667C407.014 268.016 387.604 271.785 368.875 277.888C365.686 278.858 362.314 279.067 359.03 278.499C355.746 277.931 352.64 276.601 349.962 274.616C347.285 272.631 345.11 270.046 343.611 267.069C342.112 264.092 341.332 260.805 341.333 257.472V234.667C341.333 217.693 334.591 201.414 322.588 189.412C310.586 177.41 294.307 170.667 277.333 170.667H243.861C240.528 170.668 237.241 169.888 234.264 168.389C231.287 166.89 228.702 164.715 226.717 162.038C224.732 159.36 223.403 156.254 222.834 152.97C222.266 149.686 222.475 146.314 223.445 143.125C229.554 124.398 233.323 104.986 234.667 85.3333C234.667 74.0174 230.171 63.165 222.17 55.1634C214.168 47.1619 203.316 42.6667 192 42.6667C180.684 42.6667 169.832 47.1619 161.83 55.1634C153.829 63.165 149.333 74.0174 149.333 85.3333C150.677 104.986 154.446 124.398 160.555 143.125C161.525 146.314 161.734 149.686 161.166 152.97C160.597 156.254 159.268 159.36 157.283 162.038C155.298 164.715 152.713 166.89 149.736 168.389C146.759 169.888 143.472 170.668 140.139 170.667H106.667C89.6928 170.667 73.4142 177.41 61.4118 189.412C49.4095 201.414 42.6667 217.693 42.6667 234.667V405.333C42.6667 422.307 49.4095 438.586 61.4118 450.588C73.4142 462.591 89.6928 469.333 106.667 469.333H112.469C109.091 455.345 107.147 441.049 106.667 426.667C106.667 404.035 115.657 382.33 131.66 366.327C147.663 350.324 169.368 341.333 192 341.333C214.632 341.333 236.337 350.324 252.34 366.327C268.343 382.33 277.333 404.035 277.333 426.667C276.853 441.049 274.909 455.345 271.531 469.333Z" fill="white"/>
</g>
<defs>
<clipPath id="clip0_1_13">
<rect width="512" height="512" fill="white"/>
</clipPath>
</defs>
</svg>
