<?xml version="1.0" ?><svg xmlns="http://www.w3.org/2000/svg" id="flat" viewBox="0 0 960 960"><path d="m898.122,521.029c-13.499-24.588-36.349-43.892-62.854-53.092-15.156-5.271-34.802-10.952-36.472-26.916-1.711-16.264,17.935-26.272,34.268-27.148,16.333-.863,34.528,1.93,47.479-8.064,14.307-11.021,14.718-33.87,4.97-49.081-9.748-15.21-26.82-24.068-43.837-30.119-33.569-11.911-69.438-15.457-104.925-18.482-47.178-4.025-94.369-3.943-140.534,1.287l-449.901,224.471c-31.913,26.697-65.592,63.141-84.416,100.503-14.813,29.394-14.923,73.97,14.964,87.784,24.451,11.295,50.231-12.363,71.095-29.448,16.839-13.8,33.46-27.806,55.064-30.571,26.56-3.409,42.797,7.612,52.435,24.848,17.702,31.666-15.361,84.718-.26,116.356,10.446,21.878,41.127,26.957,63.429,17.483,22.316-9.488,38.32-29.147,54.16-47.479,55.132-63.826,120.122-120.683,196.638-156.141,76.517-35.459,165.492-48.15,246.335-24.123,24.917,7.407,53.832,17.634,75.038,2.574,22.316-15.867,20.509-50.628,7.324-74.641Z" fill="#e0eded"/><path d="m591.11,260.592c-7.229-16.114-19.002-31.351-35.691-37.17-15.47-5.394-33.008-1.78-47.246,6.353-14.238,8.118-25.341,20.577-36.198,32.857-26.546,30.037-64.729,87.291-78.543,109.018l35.869,83.554c47.657-33.57,81.911-55.351,126.707-95.109,10.131-8.995,34.186-35.568,39.265-48.123.342-.849.657-1.698.945-2.56,5.284-15.758,1.739-33.542-5.107-48.821Z" fill="#e0eded"/><path d="m538.428,301.007c-3.505-4.559-9.529-6.681-15.292-6.558-5.75.123-11.281,2.218-16.429,4.792-11.24,5.586-21.179,13.472-30.681,21.672-23.986,20.7-45.85,43.865-65.126,69.001-.424.547-.835,1.095-1.246,1.643-2.459,11.001,2.83,19.055,12.445,25.465,7.119-6.462,14.841-12.39,22.521-18.154,19.194-14.389,38.69-28.367,58.486-41.907,12.294-8.406,25.054-17.004,33.159-29.49,5.148-7.927,7.927-18.975,2.163-26.464Z" fill="#ffbeb5"/><path d="m287.507,142.333c-26.615,14.101-43.44,41.25-57.692,67.796-18.304,34.09-27.682,74.271-35.883,113.29l106.581,1.068c16.374-27.313,32.762-54.626,49.149-81.938,15.156-25.287,30.653-56.488,17.155-82.691-13.814-26.779-52.681-31.625-79.31-17.524Z" fill="#e0eded"/><path d="m302.895,195.548c-8.187-1.273-16.483,2.807-22.302,8.694-5.832,5.901-9.638,13.444-13.362,20.851-4.066,8.118-8.146,16.237-12.226,24.369-3.546,7.078-7.105,14.17-10.254,21.439-6.202,14.348-10.774,29.407-13.636,44.768,6.252,8.608,16.658,8.242,30.489.479,12.801-26.135,28.052-51.08,45.508-74.381,6.667-8.885,14.06-19.016,12.226-29.969-1.355-8.118-8.31-14.991-16.443-16.251Z" fill="#ffbeb5"/><g><path d="m426.508,491.69c-3.423,17.77-7.188,35.719-15.32,51.874-24.629,48.93-85.731,70.958-140.11,64.359-49.409-5.996-95.054-34.418-124.762-74.039-20.235-26.998-33.09-59.198-34.72-93.055-.794-16.566.917-33.501,7.311-48.807,11.952-28.614,43.344-56.146,75.024-68.604,7.667-3.026,15.347-5.161,22.781-6.216,31.968-4.545,57.555-.917,83.8,7.283,16.073,5.024,32.392,11.76,50.587,19.399,17.798,7.475,32.529,17.593,44.234,29.667,2.054,2.108,4.011,4.285,5.86,6.517,17.565,21.029,26.888,47.068,28.107,75.134.52,11.883-.424,24.123-2.793,36.485Z" fill="#e0eded"/><path d="m707.517,424.126c-.727,0-1.454-.037-2.183-.111-4.696-.483-9.029-2.414-12.852-4.118-1.513-.674-2.193-2.448-1.519-3.961.675-1.514,2.447-2.194,3.962-1.519,3.578,1.595,7.279,3.244,11.022,3.629,6.367.659,13.063-2.86,15.915-8.359,2.878-5.553,1.63-13.116-2.842-17.217-.926-.85-1.224-2.186-.748-3.349.478-1.163,1.68-1.909,2.883-1.86,1.453.047,2.548-.737,3.233-1.406,1.523-1.489,2.488-3.877,2.459-6.083-.06-4.599-3.22-9.133-7.515-10.782-4.291-1.649-9.676-.394-12.798,2.984-.938,1.016-2.448,1.257-3.656.588-1.209-.669-1.805-2.078-1.441-3.412.77-2.831-.716-6.312-3.532-8.279-2.686-1.877-6.434-2.57-10.553-1.95-5.142.773-9.693,3.384-12.487,7.164-2.898,3.922-3.74,9.174-2.144,13.379.487,1.284.041,2.734-1.083,3.522-1.123.787-2.64.713-3.681-.185-2.082-1.795-6.135-3.12-9.849-2.179-3.149.799-5.442,3.036-6.814,6.651-1.056,2.779-1.005,5.227.15,7.274,1.361,2.411,4.041,3.884,5.956,4.233,1.63.297,2.71,1.859,2.413,3.489-.297,1.631-1.855,2.708-3.489,2.414-3.109-.567-7.622-2.789-10.104-7.187-1.426-2.525-2.675-6.718-.535-12.353,2.625-6.915,7.403-9.438,10.949-10.337,3.239-.821,6.474-.569,9.275.278-.037-4.382,1.383-8.848,4.131-12.566,3.731-5.048,9.716-8.522,16.42-9.531,5.643-.85,10.929.205,14.88,2.965,2.92,2.039,4.959,5.02,5.827,8.211,4.402-2.172,9.691-2.551,14.315-.776,6.599,2.533,11.271,9.238,11.364,16.305.05,3.826-1.584,7.831-4.265,10.452-.716.7-1.494,1.29-2.315,1.761,3.745,6.003,4.263,14.097.921,20.542-3.675,7.089-11.549,11.678-19.673,11.678Z" fill="#a8b8c2"/><path d="m160.853,430.244c.055,2.458.652,4.974,2.137,6.933,2.857,3.769,8.433,4.591,12.921,3.097,4.487-1.494,8.098-4.827,11.381-8.232,7.128-7.395,21.268-30.269,1.415-30.763-13.344-.332-28.141,16.134-27.854,28.964Z" fill="#3d4659"/><path d="m316.302,497.053c-.901,2.814-1.406,6.024.014,8.615,1.268,2.314,3.839,3.643,6.414,4.218,5.825,1.301,12.105-.713,16.664-4.565,7.119-6.015,16.925-26.785,2.575-30.14-11.461-2.68-22.751,12.763-25.667,21.873Z" fill="#3d4659"/><path d="m245.004,457.972c.159-.899.37-1.812.873-2.574.571-.866,1.477-1.466,2.439-1.854,2.416-.975,5.159-.706,7.682-.055,4.234,1.091,8.132,3.181,11.982,5.252,1.07.575,2.165,1.171,2.959,2.09,2.193,2.538,1.233,6.684-1.099,9.096-2.332,2.411-4.854,4.523-8.234,6.525-3.114,1.845-3.661,2.085-8.64,4.32-1.846.829-7.148,1.861-8.232-.918-1.489-3.817-.406-18.069.27-21.881Z" fill="#ffbeb5"/></g><path d="m290.141,612.066c-6.503,0-12.997-.385-19.424-1.166-48.496-5.885-95.898-34.003-126.802-75.217-.994-1.326-.725-3.206.601-4.2,1.327-.992,3.205-.725,4.2.601,29.941,39.931,75.819,67.168,122.724,72.86,27.016,3.278,55.306-.676,79.666-11.135,26.231-11.262,46.081-29.104,57.402-51.595,7.798-15.49,11.57-33.007,15.054-51.093,2.327-12.144,3.249-24.186,2.742-35.787-.045-1.021.434-1.995,1.27-2.583,9-6.34,17.501-12.244,25.723-17.955,34.615-24.043,64.511-44.808,100.72-76.945,10.394-9.228,33.789-35.422,38.475-47.004.328-.811.616-1.591.881-2.385.524-1.571,2.219-2.42,3.796-1.896,1.571.525,2.42,2.224,1.896,3.796-.305.912-.635,1.806-1.01,2.733-5.274,13.038-29.267,39.666-40.055,49.243-36.476,32.375-66.507,53.233-101.279,77.386-7.807,5.422-15.865,11.02-24.358,16.994.375,11.557-.602,23.503-2.906,35.535-3.567,18.52-7.443,36.481-15.587,52.659-11.964,23.769-32.849,42.584-60.395,54.411-19.517,8.379-41.455,12.742-63.332,12.743Z" fill="#a8b8c2"/></svg>