<svg width="512" height="512" viewBox="0 0 512 512" fill="none" xmlns="http://www.w3.org/2000/svg">
<g clip-path="url(#clip0_143_20)">
<path d="M490.667 234.667H448V192C448 180.218 438.449 170.667 426.667 170.667C414.885 170.667 405.334 180.218 405.334 192V234.667H362.667C350.885 234.667 341.334 244.218 341.334 256C341.334 267.782 350.885 277.333 362.667 277.333H405.334V320C405.334 331.782 414.885 341.333 426.667 341.333C438.449 341.333 448 331.782 448 320V277.333H490.667C502.449 277.333 512 267.782 512 256C512 244.218 502.449 234.667 490.667 234.667Z" fill="white"/>
<path d="M192 256C262.692 256 320 198.692 320 128C320 57.3075 262.692 0 192 0C121.308 0 64 57.3075 64 128C64 198.692 121.308 256 192 256Z" fill="white"/>
<path d="M192 298.667C86.01 298.785 0.118 384.677 0 490.667C0 502.449 9.551 512 21.333 512H362.666C374.448 512 383.999 502.449 383.999 490.667C383.882 384.677 297.99 298.784 192 298.667Z" fill="white"/>
</g>
<defs>
<clipPath id="clip0_143_20">
<rect width="512" height="512" fill="white"/>
</clipPath>
</defs>
</svg>
