<svg width="512" height="512" viewBox="0 0 512 512" fill="none" xmlns="http://www.w3.org/2000/svg">
<g clip-path="url(#clip0_1_20)">
<path d="M160 277.333C141.013 277.333 122.452 271.703 106.665 261.154C90.8781 250.606 78.5736 235.613 71.3076 218.071C64.0416 200.529 62.1404 181.227 65.8446 162.605C69.5488 143.983 78.6919 126.877 92.1178 113.451C105.544 100.025 122.649 90.8822 141.271 87.178C159.894 83.4738 179.196 85.3749 196.738 92.6409C214.279 99.907 229.272 112.212 239.821 127.999C250.37 143.786 256 162.346 256 181.333C255.972 206.785 245.848 231.187 227.851 249.184C209.854 267.182 185.452 277.305 160 277.333ZM160 128C149.452 128 139.14 131.128 130.37 136.988C121.599 142.849 114.763 151.178 110.726 160.924C106.69 170.669 105.634 181.393 107.691 191.738C109.749 202.084 114.829 211.587 122.288 219.046C129.746 226.505 139.25 231.584 149.595 233.642C159.941 235.7 170.664 234.644 180.41 230.607C190.155 226.57 198.485 219.734 204.345 210.964C210.205 202.193 213.333 191.882 213.333 181.333C213.333 167.188 207.714 153.623 197.712 143.621C187.71 133.619 174.145 128 160 128ZM320 426.667C319.966 398.387 308.717 371.276 288.721 351.279C268.724 331.283 241.613 320.034 213.333 320H106.667C78.3873 320.034 51.2759 331.283 31.2794 351.279C11.2828 371.276 0.0338743 398.387 0 426.667L0 512H42.6667V426.667C42.6667 409.693 49.4095 393.414 61.4118 381.412C73.4142 369.41 89.6928 362.667 106.667 362.667H213.333C230.307 362.667 246.586 369.41 258.588 381.412C270.591 393.414 277.333 409.693 277.333 426.667V512H320V426.667ZM373.333 192C354.346 192 335.786 186.37 319.999 175.821C304.211 165.273 291.907 150.279 284.641 132.738C277.375 115.196 275.474 95.8935 279.178 77.2714C282.882 58.6492 292.025 41.5436 305.451 28.1178C318.877 14.692 335.982 5.54884 354.605 1.84466C373.227 -1.85952 392.529 0.0415955 410.071 7.30761C427.613 14.5736 442.606 26.8782 453.154 42.6653C463.703 58.4524 469.333 77.013 469.333 96C469.305 121.452 459.182 145.854 441.184 163.851C423.187 181.848 398.785 191.972 373.333 192ZM373.333 42.6667C362.785 42.6667 352.474 45.7947 343.703 51.655C334.932 57.5153 328.096 65.8449 324.06 75.5903C320.023 85.3356 318.967 96.0592 321.025 106.405C323.083 116.751 328.162 126.254 335.621 133.712C343.08 141.171 352.583 146.251 362.929 148.309C373.274 150.366 383.998 149.31 393.743 145.274C403.489 141.237 411.818 134.401 417.678 125.63C423.539 116.86 426.667 106.548 426.667 96C426.667 81.8552 421.048 68.2896 411.046 58.2877C401.044 48.2857 387.478 42.6667 373.333 42.6667ZM512 341.333C511.966 313.054 500.717 285.943 480.721 265.946C460.724 245.95 433.613 234.701 405.333 234.667H320V277.333H405.333C422.307 277.333 438.586 284.076 450.588 296.079C462.591 308.081 469.333 324.36 469.333 341.333V426.667H512V341.333Z" fill="white"/>
</g>
<defs>
<clipPath id="clip0_1_20">
<rect width="512" height="512" fill="white"/>
</clipPath>
</defs>
</svg>
