<?xml version="1.0" encoding="UTF-8" standalone="no"?>
<!-- Generator: Adobe Illustrator 16.0.0, SVG Export Plug-In . SVG Version: 6.00 Build 0)  -->

<svg
   version="1.1"
   id="Capa_1"
   x="0px"
   y="0px"
   width="561px"
   height="561px"
   viewBox="0 0 561 561"
   style="enable-background:new 0 0 561 561;"
   xml:space="preserve"
   sodipodi:docname="visibility-on.svg"
   inkscape:version="1.2.2 (732a01da63, 2022-12-09)"
   xmlns:inkscape="http://www.inkscape.org/namespaces/inkscape"
   xmlns:sodipodi="http://sodipodi.sourceforge.net/DTD/sodipodi-0.dtd"
   xmlns="http://www.w3.org/2000/svg"
   xmlns:svg="http://www.w3.org/2000/svg"><defs
   id="defs2847" /><sodipodi:namedview
   id="namedview2845"
   pagecolor="#ffffff"
   bordercolor="#000000"
   borderopacity="0.25"
   inkscape:showpageshadow="2"
   inkscape:pageopacity="0.0"
   inkscape:pagecheckerboard="0"
   inkscape:deskcolor="#d1d1d1"
   showgrid="false"
   inkscape:zoom="1.5632799"
   inkscape:cx="248.19612"
   inkscape:cy="280.81984"
   inkscape:window-width="1920"
   inkscape:window-height="1057"
   inkscape:window-x="-8"
   inkscape:window-y="-8"
   inkscape:window-maximized="1"
   inkscape:current-layer="g2812" />
<g
   id="g2812">
	<g
   id="visibility"
   style="fill:#8b95c9;fill-opacity:1">
		<path
   d="M280.5,89.25C153,89.25,43.35,168.3,0,280.5c43.35,112.2,153,191.25,280.5,191.25S517.65,392.7,561,280.5    C517.65,168.3,408,89.25,280.5,89.25z M280.5,408C209.1,408,153,351.9,153,280.5c0-71.4,56.1-127.5,127.5-127.5    c71.4,0,127.5,56.1,127.5,127.5C408,351.9,351.9,408,280.5,408z M280.5,204c-43.35,0-76.5,33.15-76.5,76.5    c0,43.35,33.15,76.5,76.5,76.5c43.35,0,76.5-33.15,76.5-76.5C357,237.15,323.85,204,280.5,204z"
   id="path2809"
   style="fill:#8b95c9;fill-opacity:1" />
	</g>
</g>
<g
   id="g2814">
</g>
<g
   id="g2816">
</g>
<g
   id="g2818">
</g>
<g
   id="g2820">
</g>
<g
   id="g2822">
</g>
<g
   id="g2824">
</g>
<g
   id="g2826">
</g>
<g
   id="g2828">
</g>
<g
   id="g2830">
</g>
<g
   id="g2832">
</g>
<g
   id="g2834">
</g>
<g
   id="g2836">
</g>
<g
   id="g2838">
</g>
<g
   id="g2840">
</g>
<g
   id="g2842">
</g>
</svg>
